<?xml version="1.0" encoding="utf-8" standalone="no"?>
<!DOCTYPE svg PUBLIC "-//W3C//DTD SVG 1.1//EN"
  "http://www.w3.org/Graphics/SVG/1.1/DTD/svg11.dtd">
<!-- Created with matplotlib (https://matplotlib.org/) -->
<svg height="301.68pt" version="1.1" viewBox="0 0 1209.6 301.68" width="1209.6pt" xmlns="http://www.w3.org/2000/svg" xmlns:xlink="http://www.w3.org/1999/xlink">
 <defs>
  <style type="text/css">
*{stroke-linecap:butt;stroke-linejoin:round;}
  </style>
 </defs>
 <g id="figure_1">
  <g id="patch_1">
   <path d="M 0 301.68 
L 1209.6 301.68 
L 1209.6 0 
L 0 0 
z
" style="fill:#ffffff;"/>
  </g>
  <g id="axes_1">
   <g id="patch_2">
    <path d="M 40.32 141.7896 
L 234.968276 141.7896 
L 234.968276 36.2016 
L 40.32 36.2016 
z
" style="fill:#ffffff;"/>
   </g>
   <g id="matplotlib.axis_1"/>
   <g id="matplotlib.axis_2">
    <g id="ytick_1">
     <g id="line2d_1">
      <path clip-path="url(#p819858683d)" d="M 40.32 141.7896 
L 234.968276 141.7896 
" style="fill:none;stroke:#cccccc;stroke-linecap:round;stroke-width:0.8;"/>
     </g>
     <g id="text_1">
      <!-- 0 -->
      <defs>
       <path d="M 4.15625 35.296875 
Q 4.15625 48 6.765625 55.734375 
Q 9.375 63.484375 14.515625 67.671875 
Q 19.671875 71.875 27.484375 71.875 
Q 33.25 71.875 37.59375 69.546875 
Q 41.9375 67.234375 44.765625 62.859375 
Q 47.609375 58.5 49.21875 52.21875 
Q 50.828125 45.953125 50.828125 35.296875 
Q 50.828125 22.703125 48.234375 14.96875 
Q 45.65625 7.234375 40.5 3 
Q 35.359375 -1.21875 27.484375 -1.21875 
Q 17.140625 -1.21875 11.234375 6.203125 
Q 4.15625 15.140625 4.15625 35.296875 
z
M 13.1875 35.296875 
Q 13.1875 17.671875 17.3125 11.828125 
Q 21.4375 6 27.484375 6 
Q 33.546875 6 37.671875 11.859375 
Q 41.796875 17.71875 41.796875 35.296875 
Q 41.796875 52.984375 37.671875 58.78125 
Q 33.546875 64.59375 27.390625 64.59375 
Q 21.34375 64.59375 17.71875 59.46875 
Q 13.1875 52.9375 13.1875 35.296875 
z
" id="ArialMT-48"/>
      </defs>
      <g style="fill:#262626;" transform="translate(27.759062 145.368506)scale(0.1 -0.1)">
       <use xlink:href="#ArialMT-48"/>
      </g>
     </g>
    </g>
    <g id="ytick_2">
     <g id="line2d_2">
      <path clip-path="url(#p819858683d)" d="M 40.32 119.7921 
L 234.968276 119.7921 
" style="fill:none;stroke:#cccccc;stroke-linecap:round;stroke-width:0.8;"/>
     </g>
     <g id="text_2">
      <!-- 250 -->
      <defs>
       <path d="M 50.34375 8.453125 
L 50.34375 0 
L 3.03125 0 
Q 2.9375 3.171875 4.046875 6.109375 
Q 5.859375 10.9375 9.828125 15.625 
Q 13.8125 20.3125 21.34375 26.46875 
Q 33.015625 36.03125 37.109375 41.625 
Q 41.21875 47.21875 41.21875 52.203125 
Q 41.21875 57.421875 37.46875 61 
Q 33.734375 64.59375 27.734375 64.59375 
Q 21.390625 64.59375 17.578125 60.78125 
Q 13.765625 56.984375 13.71875 50.25 
L 4.6875 51.171875 
Q 5.609375 61.28125 11.65625 66.578125 
Q 17.71875 71.875 27.9375 71.875 
Q 38.234375 71.875 44.234375 66.15625 
Q 50.25 60.453125 50.25 52 
Q 50.25 47.703125 48.484375 43.546875 
Q 46.734375 39.40625 42.65625 34.8125 
Q 38.578125 30.21875 29.109375 22.21875 
Q 21.1875 15.578125 18.9375 13.203125 
Q 16.703125 10.84375 15.234375 8.453125 
z
" id="ArialMT-50"/>
       <path d="M 4.15625 18.75 
L 13.375 19.53125 
Q 14.40625 12.796875 18.140625 9.390625 
Q 21.875 6 27.15625 6 
Q 33.5 6 37.890625 10.78125 
Q 42.28125 15.578125 42.28125 23.484375 
Q 42.28125 31 38.0625 35.34375 
Q 33.84375 39.703125 27 39.703125 
Q 22.75 39.703125 19.328125 37.765625 
Q 15.921875 35.84375 13.96875 32.765625 
L 5.71875 33.84375 
L 12.640625 70.609375 
L 48.25 70.609375 
L 48.25 62.203125 
L 19.671875 62.203125 
L 15.828125 42.96875 
Q 22.265625 47.46875 29.34375 47.46875 
Q 38.71875 47.46875 45.15625 40.96875 
Q 51.609375 34.46875 51.609375 24.265625 
Q 51.609375 14.546875 45.953125 7.46875 
Q 39.0625 -1.21875 27.15625 -1.21875 
Q 17.390625 -1.21875 11.203125 4.25 
Q 5.03125 9.71875 4.15625 18.75 
z
" id="ArialMT-53"/>
      </defs>
      <g style="fill:#262626;" transform="translate(16.637187 123.371006)scale(0.1 -0.1)">
       <use xlink:href="#ArialMT-50"/>
       <use x="55.615234" xlink:href="#ArialMT-53"/>
       <use x="111.230469" xlink:href="#ArialMT-48"/>
      </g>
     </g>
    </g>
    <g id="ytick_3">
     <g id="line2d_3">
      <path clip-path="url(#p819858683d)" d="M 40.32 97.7946 
L 234.968276 97.7946 
" style="fill:none;stroke:#cccccc;stroke-linecap:round;stroke-width:0.8;"/>
     </g>
     <g id="text_3">
      <!-- 500 -->
      <g style="fill:#262626;" transform="translate(16.637187 101.373506)scale(0.1 -0.1)">
       <use xlink:href="#ArialMT-53"/>
       <use x="55.615234" xlink:href="#ArialMT-48"/>
       <use x="111.230469" xlink:href="#ArialMT-48"/>
      </g>
     </g>
    </g>
    <g id="ytick_4">
     <g id="line2d_4">
      <path clip-path="url(#p819858683d)" d="M 40.32 75.7971 
L 234.968276 75.7971 
" style="fill:none;stroke:#cccccc;stroke-linecap:round;stroke-width:0.8;"/>
     </g>
     <g id="text_4">
      <!-- 750 -->
      <defs>
       <path d="M 4.734375 62.203125 
L 4.734375 70.65625 
L 51.078125 70.65625 
L 51.078125 63.8125 
Q 44.234375 56.546875 37.515625 44.484375 
Q 30.8125 32.421875 27.15625 19.671875 
Q 24.515625 10.6875 23.78125 0 
L 14.75 0 
Q 14.890625 8.453125 18.0625 20.40625 
Q 21.234375 32.375 27.171875 43.484375 
Q 33.109375 54.59375 39.796875 62.203125 
z
" id="ArialMT-55"/>
      </defs>
      <g style="fill:#262626;" transform="translate(16.637187 79.376006)scale(0.1 -0.1)">
       <use xlink:href="#ArialMT-55"/>
       <use x="55.615234" xlink:href="#ArialMT-53"/>
       <use x="111.230469" xlink:href="#ArialMT-48"/>
      </g>
     </g>
    </g>
    <g id="ytick_5">
     <g id="line2d_5">
      <path clip-path="url(#p819858683d)" d="M 40.32 53.7996 
L 234.968276 53.7996 
" style="fill:none;stroke:#cccccc;stroke-linecap:round;stroke-width:0.8;"/>
     </g>
     <g id="text_5">
      <!-- 1000 -->
      <defs>
       <path d="M 37.25 0 
L 28.46875 0 
L 28.46875 56 
Q 25.296875 52.984375 20.140625 49.953125 
Q 14.984375 46.921875 10.890625 45.40625 
L 10.890625 53.90625 
Q 18.265625 57.375 23.78125 62.296875 
Q 29.296875 67.234375 31.59375 71.875 
L 37.25 71.875 
z
" id="ArialMT-49"/>
      </defs>
      <g style="fill:#262626;" transform="translate(11.07625 57.378506)scale(0.1 -0.1)">
       <use xlink:href="#ArialMT-49"/>
       <use x="55.615234" xlink:href="#ArialMT-48"/>
       <use x="111.230469" xlink:href="#ArialMT-48"/>
       <use x="166.845703" xlink:href="#ArialMT-48"/>
      </g>
     </g>
    </g>
   </g>
   <g id="line2d_6">
    <path clip-path="url(#p819858683d)" d="M 49.167649 54.23955 
L 102.932994 134.216198 
L 106.773376 134.216198 
L 107.06879 134.623812 
L 108.841274 134.623812 
L 109.136688 135.026819 
L 110.02293 135.026819 
L 110.318344 135.425269 
L 110.909172 135.425269 
L 111.5 136.107095 
L 112.090828 136.107095 
L 112.681656 136.875205 
L 113.272484 136.875205 
L 113.863312 137.626047 
L 114.45414 137.626047 
L 115.044968 138.360008 
L 115.635796 138.360008 
L 116.226624 139.077469 
L 116.817452 139.077469 
L 117.703694 140.12353 
L 117.999108 140.12353 
L 118.88535 141.134515 
L 119.180764 141.134515 
L 119.771592 141.7896 
L 226.120627 141.7896 
L 226.120627 141.7896 
" style="fill:none;stroke:#1f77b4;stroke-linecap:round;stroke-width:1.5;"/>
   </g>
   <g id="line2d_7">
    <path clip-path="url(#p819858683d)" d="M 49.167649 54.23955 
L 103.523822 135.026819 
L 106.182548 138.454921 
L 107.955032 140.553018 
L 110.613758 140.553018 
L 111.795414 141.7896 
L 226.120627 141.7896 
L 226.120627 141.7896 
" style="fill:none;stroke:#ff7f0e;stroke-linecap:round;stroke-width:1.5;"/>
   </g>
   <g id="patch_3">
    <path d="M 40.32 141.7896 
L 40.32 36.2016 
" style="fill:none;stroke:#cccccc;stroke-linecap:square;stroke-linejoin:miter;stroke-width:0.8;"/>
   </g>
   <g id="patch_4">
    <path d="M 234.968276 141.7896 
L 234.968276 36.2016 
" style="fill:none;stroke:#cccccc;stroke-linecap:square;stroke-linejoin:miter;stroke-width:0.8;"/>
   </g>
   <g id="patch_5">
    <path d="M 40.32 141.7896 
L 234.968276 141.7896 
" style="fill:none;stroke:#cccccc;stroke-linecap:square;stroke-linejoin:miter;stroke-width:0.8;"/>
   </g>
   <g id="patch_6">
    <path d="M 40.32 36.2016 
L 234.968276 36.2016 
" style="fill:none;stroke:#cccccc;stroke-linecap:square;stroke-linejoin:miter;stroke-width:0.8;"/>
   </g>
   <g id="text_6">
    <!-- 0 -->
    <g style="fill:#262626;" transform="translate(134.307575 30.2016)scale(0.12 -0.12)">
     <use xlink:href="#ArialMT-48"/>
    </g>
   </g>
  </g>
  <g id="axes_2">
   <g id="patch_7">
    <path d="M 273.897931 141.7896 
L 468.546207 141.7896 
L 468.546207 36.2016 
L 273.897931 36.2016 
z
" style="fill:#ffffff;"/>
   </g>
   <g id="matplotlib.axis_3"/>
   <g id="matplotlib.axis_4">
    <g id="ytick_6">
     <g id="line2d_8">
      <path clip-path="url(#pf55864e125)" d="M 273.897931 141.7896 
L 468.546207 141.7896 
" style="fill:none;stroke:#cccccc;stroke-linecap:round;stroke-width:0.8;"/>
     </g>
     <g id="text_7">
      <!-- 0 -->
      <g style="fill:#262626;" transform="translate(261.336994 145.368506)scale(0.1 -0.1)">
       <use xlink:href="#ArialMT-48"/>
      </g>
     </g>
    </g>
    <g id="ytick_7">
     <g id="line2d_9">
      <path clip-path="url(#pf55864e125)" d="M 273.897931 119.7921 
L 468.546207 119.7921 
" style="fill:none;stroke:#cccccc;stroke-linecap:round;stroke-width:0.8;"/>
     </g>
     <g id="text_8">
      <!-- 250 -->
      <g style="fill:#262626;" transform="translate(250.215119 123.371006)scale(0.1 -0.1)">
       <use xlink:href="#ArialMT-50"/>
       <use x="55.615234" xlink:href="#ArialMT-53"/>
       <use x="111.230469" xlink:href="#ArialMT-48"/>
      </g>
     </g>
    </g>
    <g id="ytick_8">
     <g id="line2d_10">
      <path clip-path="url(#pf55864e125)" d="M 273.897931 97.7946 
L 468.546207 97.7946 
" style="fill:none;stroke:#cccccc;stroke-linecap:round;stroke-width:0.8;"/>
     </g>
     <g id="text_9">
      <!-- 500 -->
      <g style="fill:#262626;" transform="translate(250.215119 101.373506)scale(0.1 -0.1)">
       <use xlink:href="#ArialMT-53"/>
       <use x="55.615234" xlink:href="#ArialMT-48"/>
       <use x="111.230469" xlink:href="#ArialMT-48"/>
      </g>
     </g>
    </g>
    <g id="ytick_9">
     <g id="line2d_11">
      <path clip-path="url(#pf55864e125)" d="M 273.897931 75.7971 
L 468.546207 75.7971 
" style="fill:none;stroke:#cccccc;stroke-linecap:round;stroke-width:0.8;"/>
     </g>
     <g id="text_10">
      <!-- 750 -->
      <g style="fill:#262626;" transform="translate(250.215119 79.376006)scale(0.1 -0.1)">
       <use xlink:href="#ArialMT-55"/>
       <use x="55.615234" xlink:href="#ArialMT-53"/>
       <use x="111.230469" xlink:href="#ArialMT-48"/>
      </g>
     </g>
    </g>
    <g id="ytick_10">
     <g id="line2d_12">
      <path clip-path="url(#pf55864e125)" d="M 273.897931 53.7996 
L 468.546207 53.7996 
" style="fill:none;stroke:#cccccc;stroke-linecap:round;stroke-width:0.8;"/>
     </g>
     <g id="text_11">
      <!-- 1000 -->
      <g style="fill:#262626;" transform="translate(244.654181 57.378506)scale(0.1 -0.1)">
       <use xlink:href="#ArialMT-49"/>
       <use x="55.615234" xlink:href="#ArialMT-48"/>
       <use x="111.230469" xlink:href="#ArialMT-48"/>
       <use x="166.845703" xlink:href="#ArialMT-48"/>
      </g>
     </g>
    </g>
   </g>
   <g id="line2d_13">
    <path clip-path="url(#pf55864e125)" d="M 282.74558 72.2775 
L 285.404306 80.1966 
L 296.334623 96.292903 
L 298.993349 99.703181 
L 301.652075 102.781769 
L 304.606215 105.852536 
L 307.560355 108.593296 
L 310.514495 111.039516 
L 313.764049 113.427838 
L 317.013602 115.535397 
L 320.55857 117.55302 
L 324.103538 119.31333 
L 327.94392 120.96792 
L 332.079716 122.496474 
L 336.510926 123.885523 
L 339.465065 124.780897 
L 342.123791 129.205534 
L 343.305447 131.031316 
L 343.600861 131.06732 
L 345.373345 133.652558 
L 345.668759 133.663538 
L 346.555001 134.891141 
L 346.850415 134.892675 
L 347.441243 135.688088 
L 348.032071 135.787084 
L 348.622899 136.562389 
L 349.213727 136.556519 
L 349.804555 137.314526 
L 350.395383 137.308917 
L 350.986211 138.050008 
L 351.577039 138.044649 
L 352.167867 138.7692 
L 352.758695 138.764079 
L 353.349523 139.472455 
L 354.235765 138.426394 
L 354.531179 138.786413 
L 355.417421 137.775429 
L 355.712835 137.775429 
L 356.303663 137.120343 
L 357.189905 137.120343 
L 357.485319 137.495127 
L 358.076147 137.495127 
L 358.666975 138.232032 
L 359.553216 138.232032 
L 359.84863 138.594248 
L 360.439458 138.594248 
L 360.734872 138.95237 
L 361.030286 139.077469 
L 361.621114 139.077469 
L 362.211942 139.7788 
L 362.80277 139.7788 
L 363.098184 140.12353 
L 363.984426 140.12353 
L 364.27984 140.464364 
L 365.166082 140.464364 
L 365.461496 140.801344 
L 366.347738 140.801344 
L 366.643152 141.134515 
L 367.529394 141.134515 
L 367.824808 141.463919 
L 368.71105 141.463919 
L 369.006464 141.7896 
L 459.698558 141.7896 
L 459.698558 141.7896 
" style="fill:none;stroke:#1f77b4;stroke-linecap:round;stroke-width:1.5;"/>
   </g>
   <g id="line2d_14">
    <path clip-path="url(#pf55864e125)" d="M 282.74558 72.2775 
L 285.404306 80.1966 
L 296.334623 96.292903 
L 298.993349 99.703181 
L 301.652075 102.781769 
L 304.606215 105.852536 
L 307.560355 108.593296 
L 310.514495 111.039516 
L 313.764049 113.427838 
L 317.013602 115.535397 
L 320.55857 117.55302 
L 324.103538 119.31333 
L 327.94392 120.96792 
L 332.079716 122.496474 
L 336.510926 123.885523 
L 340.055893 124.997627 
L 341.532963 125.595877 
L 344.191689 122.357212 
L 344.487103 122.017392 
L 344.782517 122.562911 
L 347.145829 122.562911 
L 348.327485 121.32633 
L 348.622899 121.879661 
L 350.986211 121.879661 
L 351.281625 122.426737 
L 352.167867 122.426737 
L 352.463281 122.967629 
L 353.349523 122.967629 
L 353.644937 123.502406 
L 354.531179 123.502406 
L 354.826593 124.031137 
L 355.712835 124.031137 
L 356.008249 124.553892 
L 356.599077 124.553892 
L 359.257803 129.000608 
L 361.916528 133.014829 
L 364.575254 136.638621 
L 367.23398 139.909957 
L 367.824808 140.464364 
L 368.120222 140.801344 
L 368.71105 140.801344 
L 369.006464 141.134515 
L 369.892706 141.134515 
L 370.18812 141.463919 
L 370.483534 141.463919 
L 370.778948 141.7896 
L 459.698558 141.7896 
L 459.698558 141.7896 
" style="fill:none;stroke:#ff7f0e;stroke-linecap:round;stroke-width:1.5;"/>
   </g>
   <g id="patch_8">
    <path d="M 273.897931 141.7896 
L 273.897931 36.2016 
" style="fill:none;stroke:#cccccc;stroke-linecap:square;stroke-linejoin:miter;stroke-width:0.8;"/>
   </g>
   <g id="patch_9">
    <path d="M 468.546207 141.7896 
L 468.546207 36.2016 
" style="fill:none;stroke:#cccccc;stroke-linecap:square;stroke-linejoin:miter;stroke-width:0.8;"/>
   </g>
   <g id="patch_10">
    <path d="M 273.897931 141.7896 
L 468.546207 141.7896 
" style="fill:none;stroke:#cccccc;stroke-linecap:square;stroke-linejoin:miter;stroke-width:0.8;"/>
   </g>
   <g id="patch_11">
    <path d="M 273.897931 36.2016 
L 468.546207 36.2016 
" style="fill:none;stroke:#cccccc;stroke-linecap:square;stroke-linejoin:miter;stroke-width:0.8;"/>
   </g>
   <g id="text_12">
    <!-- 1 -->
    <g style="fill:#262626;" transform="translate(367.885506 30.2016)scale(0.12 -0.12)">
     <use xlink:href="#ArialMT-49"/>
    </g>
   </g>
  </g>
  <g id="axes_3">
   <g id="patch_12">
    <path d="M 507.475862 141.7896 
L 702.124138 141.7896 
L 702.124138 36.2016 
L 507.475862 36.2016 
z
" style="fill:#ffffff;"/>
   </g>
   <g id="matplotlib.axis_5"/>
   <g id="matplotlib.axis_6">
    <g id="ytick_11">
     <g id="line2d_15">
      <path clip-path="url(#pc541c4cbf4)" d="M 507.475862 141.7896 
L 702.124138 141.7896 
" style="fill:none;stroke:#cccccc;stroke-linecap:round;stroke-width:0.8;"/>
     </g>
     <g id="text_13">
      <!-- 0 -->
      <g style="fill:#262626;" transform="translate(494.914925 145.368506)scale(0.1 -0.1)">
       <use xlink:href="#ArialMT-48"/>
      </g>
     </g>
    </g>
    <g id="ytick_12">
     <g id="line2d_16">
      <path clip-path="url(#pc541c4cbf4)" d="M 507.475862 119.7921 
L 702.124138 119.7921 
" style="fill:none;stroke:#cccccc;stroke-linecap:round;stroke-width:0.8;"/>
     </g>
     <g id="text_14">
      <!-- 250 -->
      <g style="fill:#262626;" transform="translate(483.79305 123.371006)scale(0.1 -0.1)">
       <use xlink:href="#ArialMT-50"/>
       <use x="55.615234" xlink:href="#ArialMT-53"/>
       <use x="111.230469" xlink:href="#ArialMT-48"/>
      </g>
     </g>
    </g>
    <g id="ytick_13">
     <g id="line2d_17">
      <path clip-path="url(#pc541c4cbf4)" d="M 507.475862 97.7946 
L 702.124138 97.7946 
" style="fill:none;stroke:#cccccc;stroke-linecap:round;stroke-width:0.8;"/>
     </g>
     <g id="text_15">
      <!-- 500 -->
      <g style="fill:#262626;" transform="translate(483.79305 101.373506)scale(0.1 -0.1)">
       <use xlink:href="#ArialMT-53"/>
       <use x="55.615234" xlink:href="#ArialMT-48"/>
       <use x="111.230469" xlink:href="#ArialMT-48"/>
      </g>
     </g>
    </g>
    <g id="ytick_14">
     <g id="line2d_18">
      <path clip-path="url(#pc541c4cbf4)" d="M 507.475862 75.7971 
L 702.124138 75.7971 
" style="fill:none;stroke:#cccccc;stroke-linecap:round;stroke-width:0.8;"/>
     </g>
     <g id="text_16">
      <!-- 750 -->
      <g style="fill:#262626;" transform="translate(483.79305 79.376006)scale(0.1 -0.1)">
       <use xlink:href="#ArialMT-55"/>
       <use x="55.615234" xlink:href="#ArialMT-53"/>
       <use x="111.230469" xlink:href="#ArialMT-48"/>
      </g>
     </g>
    </g>
    <g id="ytick_15">
     <g id="line2d_19">
      <path clip-path="url(#pc541c4cbf4)" d="M 507.475862 53.7996 
L 702.124138 53.7996 
" style="fill:none;stroke:#cccccc;stroke-linecap:round;stroke-width:0.8;"/>
     </g>
     <g id="text_17">
      <!-- 1000 -->
      <g style="fill:#262626;" transform="translate(478.232112 57.378506)scale(0.1 -0.1)">
       <use xlink:href="#ArialMT-49"/>
       <use x="55.615234" xlink:href="#ArialMT-48"/>
       <use x="111.230469" xlink:href="#ArialMT-48"/>
       <use x="166.845703" xlink:href="#ArialMT-48"/>
      </g>
     </g>
    </g>
   </g>
   <g id="line2d_20">
    <path clip-path="url(#pc541c4cbf4)" d="M 516.323511 54.23955 
L 570.088857 134.216198 
L 573.929238 134.216198 
L 574.224652 134.623812 
L 575.997136 134.623812 
L 576.29255 135.026819 
L 577.178792 135.026819 
L 577.474206 135.425269 
L 578.065034 135.425269 
L 578.655862 136.107095 
L 579.24669 136.107095 
L 579.837518 136.875205 
L 580.428346 136.875205 
L 581.019174 137.626047 
L 581.610002 137.626047 
L 582.20083 138.360008 
L 582.791658 138.360008 
L 583.382486 139.077469 
L 583.973314 139.077469 
L 584.859556 140.12353 
L 585.15497 140.12353 
L 586.041212 141.134515 
L 586.336626 141.134515 
L 586.927454 141.7896 
L 693.276489 141.7896 
L 693.276489 141.7896 
" style="fill:none;stroke:#1f77b4;stroke-linecap:round;stroke-width:1.5;"/>
   </g>
   <g id="line2d_21">
    <path clip-path="url(#pc541c4cbf4)" d="M 516.323511 54.23955 
L 570.679685 135.026819 
L 573.33841 138.454921 
L 575.110894 140.553018 
L 577.76962 140.553018 
L 578.951276 141.7896 
L 693.276489 141.7896 
L 693.276489 141.7896 
" style="fill:none;stroke:#ff7f0e;stroke-linecap:round;stroke-width:1.5;"/>
   </g>
   <g id="patch_13">
    <path d="M 507.475862 141.7896 
L 507.475862 36.2016 
" style="fill:none;stroke:#cccccc;stroke-linecap:square;stroke-linejoin:miter;stroke-width:0.8;"/>
   </g>
   <g id="patch_14">
    <path d="M 702.124138 141.7896 
L 702.124138 36.2016 
" style="fill:none;stroke:#cccccc;stroke-linecap:square;stroke-linejoin:miter;stroke-width:0.8;"/>
   </g>
   <g id="patch_15">
    <path d="M 507.475862 141.7896 
L 702.124138 141.7896 
" style="fill:none;stroke:#cccccc;stroke-linecap:square;stroke-linejoin:miter;stroke-width:0.8;"/>
   </g>
   <g id="patch_16">
    <path d="M 507.475862 36.2016 
L 702.124138 36.2016 
" style="fill:none;stroke:#cccccc;stroke-linecap:square;stroke-linejoin:miter;stroke-width:0.8;"/>
   </g>
   <g id="text_18">
    <!-- 2 -->
    <g style="fill:#262626;" transform="translate(601.463438 30.2016)scale(0.12 -0.12)">
     <use xlink:href="#ArialMT-50"/>
    </g>
   </g>
  </g>
  <g id="axes_4">
   <g id="patch_17">
    <path d="M 741.053793 141.7896 
L 935.702069 141.7896 
L 935.702069 36.2016 
L 741.053793 36.2016 
z
" style="fill:#ffffff;"/>
   </g>
   <g id="matplotlib.axis_7"/>
   <g id="matplotlib.axis_8">
    <g id="ytick_16">
     <g id="line2d_22">
      <path clip-path="url(#p9128f0186c)" d="M 741.053793 141.7896 
L 935.702069 141.7896 
" style="fill:none;stroke:#cccccc;stroke-linecap:round;stroke-width:0.8;"/>
     </g>
     <g id="text_19">
      <!-- 0 -->
      <g style="fill:#262626;" transform="translate(728.492856 145.368506)scale(0.1 -0.1)">
       <use xlink:href="#ArialMT-48"/>
      </g>
     </g>
    </g>
    <g id="ytick_17">
     <g id="line2d_23">
      <path clip-path="url(#p9128f0186c)" d="M 741.053793 119.7921 
L 935.702069 119.7921 
" style="fill:none;stroke:#cccccc;stroke-linecap:round;stroke-width:0.8;"/>
     </g>
     <g id="text_20">
      <!-- 250 -->
      <g style="fill:#262626;" transform="translate(717.370981 123.371006)scale(0.1 -0.1)">
       <use xlink:href="#ArialMT-50"/>
       <use x="55.615234" xlink:href="#ArialMT-53"/>
       <use x="111.230469" xlink:href="#ArialMT-48"/>
      </g>
     </g>
    </g>
    <g id="ytick_18">
     <g id="line2d_24">
      <path clip-path="url(#p9128f0186c)" d="M 741.053793 97.7946 
L 935.702069 97.7946 
" style="fill:none;stroke:#cccccc;stroke-linecap:round;stroke-width:0.8;"/>
     </g>
     <g id="text_21">
      <!-- 500 -->
      <g style="fill:#262626;" transform="translate(717.370981 101.373506)scale(0.1 -0.1)">
       <use xlink:href="#ArialMT-53"/>
       <use x="55.615234" xlink:href="#ArialMT-48"/>
       <use x="111.230469" xlink:href="#ArialMT-48"/>
      </g>
     </g>
    </g>
    <g id="ytick_19">
     <g id="line2d_25">
      <path clip-path="url(#p9128f0186c)" d="M 741.053793 75.7971 
L 935.702069 75.7971 
" style="fill:none;stroke:#cccccc;stroke-linecap:round;stroke-width:0.8;"/>
     </g>
     <g id="text_22">
      <!-- 750 -->
      <g style="fill:#262626;" transform="translate(717.370981 79.376006)scale(0.1 -0.1)">
       <use xlink:href="#ArialMT-55"/>
       <use x="55.615234" xlink:href="#ArialMT-53"/>
       <use x="111.230469" xlink:href="#ArialMT-48"/>
      </g>
     </g>
    </g>
    <g id="ytick_20">
     <g id="line2d_26">
      <path clip-path="url(#p9128f0186c)" d="M 741.053793 53.7996 
L 935.702069 53.7996 
" style="fill:none;stroke:#cccccc;stroke-linecap:round;stroke-width:0.8;"/>
     </g>
     <g id="text_23">
      <!-- 1000 -->
      <g style="fill:#262626;" transform="translate(711.810043 57.378506)scale(0.1 -0.1)">
       <use xlink:href="#ArialMT-49"/>
       <use x="55.615234" xlink:href="#ArialMT-48"/>
       <use x="111.230469" xlink:href="#ArialMT-48"/>
       <use x="166.845703" xlink:href="#ArialMT-48"/>
      </g>
     </g>
    </g>
   </g>
   <g id="line2d_27">
    <path clip-path="url(#p9128f0186c)" d="M 749.901442 54.6795 
L 761.422587 88.9956 
L 764.376727 88.9956 
L 775.307045 72.899297 
L 777.965771 69.489019 
L 780.624497 66.410431 
L 783.578636 63.339664 
L 786.532776 60.598904 
L 789.486916 58.152684 
L 792.73647 55.764362 
L 795.986024 53.656803 
L 799.530992 51.63918 
L 803.07596 49.87887 
L 806.916341 48.22428 
L 811.052137 46.695726 
L 815.483347 45.306677 
L 818.142073 44.647628 
L 818.437487 44.599808 
L 820.800799 47.683938 
L 822.277869 49.788089 
L 822.573283 49.816756 
L 824.345767 52.510918 
L 824.641181 52.573825 
L 825.527423 53.985922 
L 825.822837 54.067387 
L 826.413665 55.031774 
L 827.004493 55.328927 
L 827.595321 56.313422 
L 828.186148 56.542871 
L 828.776976 57.544665 
L 829.367804 57.80839 
L 829.958632 58.827099 
L 830.54946 59.124335 
L 831.140288 60.159584 
L 831.731116 60.489583 
L 834.389842 65.283242 
L 834.98067 66.713637 
L 835.276084 67.267857 
L 836.162326 69.907557 
L 836.45774 70.412673 
L 837.048568 72.172473 
L 837.639396 73.195368 
L 838.525638 75.835068 
L 838.821052 76.352752 
L 839.41188 78.112552 
L 839.707294 78.63433 
L 843.84309 89.440936 
L 845.32016 93.501366 
L 845.615574 94.036081 
L 846.501816 96.592488 
L 846.79723 97.096025 
L 847.683472 99.549824 
L 847.978886 100.023654 
L 850.637611 106.856219 
L 853.296337 113.024239 
L 855.955063 118.592347 
L 857.136719 118.592347 
L 857.727547 119.754219 
L 858.022961 119.754219 
L 860.681687 124.667759 
L 863.340413 129.1034 
L 864.817483 131.378445 
L 865.112897 131.5556 
L 867.771623 135.321319 
L 870.430349 138.720778 
L 870.725763 139.077469 
L 871.021177 139.077469 
L 872.79366 141.134515 
L 873.089074 141.134515 
L 873.679902 141.7896 
L 926.85442 141.7896 
L 926.85442 141.7896 
" style="fill:none;stroke:#1f77b4;stroke-linecap:round;stroke-width:1.5;"/>
   </g>
   <g id="line2d_28">
    <path clip-path="url(#p9128f0186c)" d="M 749.901442 54.6795 
L 761.422587 88.9956 
L 764.376727 88.9956 
L 775.307045 72.899297 
L 777.965771 69.489019 
L 780.624497 66.410431 
L 783.578636 63.339664 
L 786.532776 60.598904 
L 789.486916 58.152684 
L 792.73647 55.764362 
L 795.986024 53.656803 
L 799.530992 51.63918 
L 803.07596 49.87887 
L 806.916341 48.22428 
L 811.052137 46.695726 
L 815.483347 45.306677 
L 818.142073 44.647628 
L 819.914557 44.447843 
L 820.505385 44.427456 
L 823.754939 49.982352 
L 826.413665 57.565474 
L 827.299907 59.30457 
L 827.595321 59.631139 
L 829.958632 66.670339 
L 830.254046 67.003163 
L 831.140288 69.642863 
L 831.435702 69.981871 
L 832.321944 72.621571 
L 832.617358 72.966694 
L 833.5036 75.606394 
L 833.799014 75.957563 
L 834.685256 78.597263 
L 834.98067 78.954408 
L 835.571498 80.714208 
L 837.93481 83.778603 
L 840.593536 87.637583 
L 843.252262 91.891456 
L 847.092644 98.416782 
L 847.683472 100.032237 
L 847.978886 100.493122 
L 848.865128 102.833009 
L 849.160542 103.265999 
L 849.455956 104.023498 
L 849.75137 104.446754 
L 852.410095 110.849121 
L 855.068821 116.628785 
L 857.727547 121.846309 
L 860.386273 126.556369 
L 863.044999 130.808321 
L 865.703725 134.646721 
L 867.771623 137.372122 
L 868.067037 137.372122 
L 868.657865 138.111792 
L 868.953279 138.111792 
L 870.134935 139.541619 
L 878.997354 139.541619 
L 879.292768 139.889031 
L 881.360666 139.889031 
L 881.951494 140.572117 
L 882.542322 140.572117 
L 883.13315 141.239846 
L 883.723978 141.239846 
L 884.314806 141.7896 
L 926.85442 141.7896 
L 926.85442 141.7896 
" style="fill:none;stroke:#ff7f0e;stroke-linecap:round;stroke-width:1.5;"/>
   </g>
   <g id="patch_18">
    <path d="M 741.053793 141.7896 
L 741.053793 36.2016 
" style="fill:none;stroke:#cccccc;stroke-linecap:square;stroke-linejoin:miter;stroke-width:0.8;"/>
   </g>
   <g id="patch_19">
    <path d="M 935.702069 141.7896 
L 935.702069 36.2016 
" style="fill:none;stroke:#cccccc;stroke-linecap:square;stroke-linejoin:miter;stroke-width:0.8;"/>
   </g>
   <g id="patch_20">
    <path d="M 741.053793 141.7896 
L 935.702069 141.7896 
" style="fill:none;stroke:#cccccc;stroke-linecap:square;stroke-linejoin:miter;stroke-width:0.8;"/>
   </g>
   <g id="patch_21">
    <path d="M 741.053793 36.2016 
L 935.702069 36.2016 
" style="fill:none;stroke:#cccccc;stroke-linecap:square;stroke-linejoin:miter;stroke-width:0.8;"/>
   </g>
   <g id="text_24">
    <!-- 3 -->
    <defs>
     <path d="M 4.203125 18.890625 
L 12.984375 20.0625 
Q 14.5 12.59375 18.140625 9.296875 
Q 21.78125 6 27 6 
Q 33.203125 6 37.46875 10.296875 
Q 41.75 14.59375 41.75 20.953125 
Q 41.75 27 37.796875 30.921875 
Q 33.84375 34.859375 27.734375 34.859375 
Q 25.25 34.859375 21.53125 33.890625 
L 22.515625 41.609375 
Q 23.390625 41.5 23.921875 41.5 
Q 29.546875 41.5 34.03125 44.421875 
Q 38.53125 47.359375 38.53125 53.46875 
Q 38.53125 58.296875 35.25 61.46875 
Q 31.984375 64.65625 26.8125 64.65625 
Q 21.6875 64.65625 18.265625 61.421875 
Q 14.84375 58.203125 13.875 51.765625 
L 5.078125 53.328125 
Q 6.6875 62.15625 12.390625 67.015625 
Q 18.109375 71.875 26.609375 71.875 
Q 32.46875 71.875 37.390625 69.359375 
Q 42.328125 66.84375 44.9375 62.5 
Q 47.5625 58.15625 47.5625 53.265625 
Q 47.5625 48.640625 45.0625 44.828125 
Q 42.578125 41.015625 37.703125 38.765625 
Q 44.046875 37.3125 47.5625 32.6875 
Q 51.078125 28.078125 51.078125 21.140625 
Q 51.078125 11.765625 44.234375 5.25 
Q 37.40625 -1.265625 26.953125 -1.265625 
Q 17.53125 -1.265625 11.296875 4.34375 
Q 5.078125 9.96875 4.203125 18.890625 
z
" id="ArialMT-51"/>
    </defs>
    <g style="fill:#262626;" transform="translate(835.041369 30.2016)scale(0.12 -0.12)">
     <use xlink:href="#ArialMT-51"/>
    </g>
   </g>
  </g>
  <g id="axes_5">
   <g id="patch_22">
    <path d="M 974.631724 141.7896 
L 1169.28 141.7896 
L 1169.28 36.2016 
L 974.631724 36.2016 
z
" style="fill:#ffffff;"/>
   </g>
   <g id="matplotlib.axis_9"/>
   <g id="matplotlib.axis_10">
    <g id="ytick_21">
     <g id="line2d_29">
      <path clip-path="url(#p8c575fd376)" d="M 974.631724 141.7896 
L 1169.28 141.7896 
" style="fill:none;stroke:#cccccc;stroke-linecap:round;stroke-width:0.8;"/>
     </g>
     <g id="text_25">
      <!-- 0 -->
      <g style="fill:#262626;" transform="translate(962.070787 145.368506)scale(0.1 -0.1)">
       <use xlink:href="#ArialMT-48"/>
      </g>
     </g>
    </g>
    <g id="ytick_22">
     <g id="line2d_30">
      <path clip-path="url(#p8c575fd376)" d="M 974.631724 119.7921 
L 1169.28 119.7921 
" style="fill:none;stroke:#cccccc;stroke-linecap:round;stroke-width:0.8;"/>
     </g>
     <g id="text_26">
      <!-- 250 -->
      <g style="fill:#262626;" transform="translate(950.948912 123.371006)scale(0.1 -0.1)">
       <use xlink:href="#ArialMT-50"/>
       <use x="55.615234" xlink:href="#ArialMT-53"/>
       <use x="111.230469" xlink:href="#ArialMT-48"/>
      </g>
     </g>
    </g>
    <g id="ytick_23">
     <g id="line2d_31">
      <path clip-path="url(#p8c575fd376)" d="M 974.631724 97.7946 
L 1169.28 97.7946 
" style="fill:none;stroke:#cccccc;stroke-linecap:round;stroke-width:0.8;"/>
     </g>
     <g id="text_27">
      <!-- 500 -->
      <g style="fill:#262626;" transform="translate(950.948912 101.373506)scale(0.1 -0.1)">
       <use xlink:href="#ArialMT-53"/>
       <use x="55.615234" xlink:href="#ArialMT-48"/>
       <use x="111.230469" xlink:href="#ArialMT-48"/>
      </g>
     </g>
    </g>
    <g id="ytick_24">
     <g id="line2d_32">
      <path clip-path="url(#p8c575fd376)" d="M 974.631724 75.7971 
L 1169.28 75.7971 
" style="fill:none;stroke:#cccccc;stroke-linecap:round;stroke-width:0.8;"/>
     </g>
     <g id="text_28">
      <!-- 750 -->
      <g style="fill:#262626;" transform="translate(950.948912 79.376006)scale(0.1 -0.1)">
       <use xlink:href="#ArialMT-55"/>
       <use x="55.615234" xlink:href="#ArialMT-53"/>
       <use x="111.230469" xlink:href="#ArialMT-48"/>
      </g>
     </g>
    </g>
    <g id="ytick_25">
     <g id="line2d_33">
      <path clip-path="url(#p8c575fd376)" d="M 974.631724 53.7996 
L 1169.28 53.7996 
" style="fill:none;stroke:#cccccc;stroke-linecap:round;stroke-width:0.8;"/>
     </g>
     <g id="text_29">
      <!-- 1000 -->
      <g style="fill:#262626;" transform="translate(945.387974 57.378506)scale(0.1 -0.1)">
       <use xlink:href="#ArialMT-49"/>
       <use x="55.615234" xlink:href="#ArialMT-48"/>
       <use x="111.230469" xlink:href="#ArialMT-48"/>
       <use x="166.845703" xlink:href="#ArialMT-48"/>
      </g>
     </g>
    </g>
   </g>
   <g id="line2d_34">
    <path clip-path="url(#p8c575fd376)" d="M 983.479373 141.7896 
L 992.046379 141.7896 
L 994.705105 136.989651 
L 997.36383 132.656553 
L 1000.022556 128.744898 
L 1002.681282 125.213697 
L 1005.340008 122.025947 
L 1008.294148 118.846296 
L 1011.248288 116.008352 
L 1014.202428 113.475394 
L 1017.156568 111.214644 
L 1020.406121 109.007402 
L 1023.655675 107.059636 
L 1027.200643 105.194988 
L 1031.041025 103.442326 
L 1034.881407 101.930472 
L 1039.017203 100.533781 
L 1043.448412 99.264561 
L 1048.47045 98.064943 
L 1053.787902 97.023726 
L 1059.696182 96.091197 
L 1066.490703 95.250762 
L 1074.171467 94.531109 
L 1083.033887 93.926407 
L 1088.646752 93.696794 
L 1090.123822 93.89244 
L 1091.896306 94.379438 
L 1093.66879 95.131037 
L 1095.441274 96.11351 
L 1097.509172 97.506741 
L 1098.395414 98.174011 
L 1099.57707 101.379395 
L 1100.167898 101.772977 
L 1100.463312 102.547355 
L 1102.826624 104.216084 
L 1105.780764 106.607664 
L 1107.257833 107.902219 
L 1107.553247 108.430152 
L 1111.393629 111.962756 
L 1113.166113 113.667608 
L 1113.461527 114.30752 
L 1115.234011 115.998879 
L 1115.529425 116.612436 
L 1116.120253 117.16746 
L 1118.778979 122.332591 
L 1121.437705 126.995355 
L 1124.096431 131.20461 
L 1124.982673 132.514667 
L 1125.868915 132.514667 
L 1128.527641 136.187106 
L 1129.413882 136.187106 
L 1130.00471 136.953417 
L 1130.595538 136.953417 
L 1131.186366 137.7025 
L 1131.777194 137.7025 
L 1132.072608 138.070703 
L 1132.95885 138.070703 
L 1133.549678 138.720778 
L 1134.140506 138.720778 
L 1134.43592 139.077469 
L 1135.322162 139.077469 
L 1135.617576 139.430128 
L 1136.503818 139.430128 
L 1137.094646 140.12353 
L 1137.685474 140.12353 
L 1137.980888 140.464364 
L 1138.86713 140.464364 
L 1139.162544 140.801344 
L 1140.048786 140.801344 
L 1140.3442 141.134515 
L 1141.230442 141.134515 
L 1141.525856 141.463919 
L 1142.116684 141.463919 
L 1142.412098 141.7896 
L 1160.432351 141.7896 
L 1160.432351 141.7896 
" style="fill:none;stroke:#1f77b4;stroke-linecap:round;stroke-width:1.5;"/>
   </g>
   <g id="line2d_35">
    <path clip-path="url(#p8c575fd376)" d="M 983.479373 141.7896 
L 992.046379 141.7896 
L 994.705105 136.989651 
L 997.36383 132.656553 
L 1000.022556 128.744898 
L 1002.681282 125.213697 
L 1005.340008 122.025947 
L 1008.294148 118.846296 
L 1011.248288 116.008352 
L 1014.202428 113.475394 
L 1017.156568 111.214644 
L 1020.406121 109.007402 
L 1023.655675 107.059636 
L 1027.200643 105.194988 
L 1031.041025 103.442326 
L 1034.881407 101.930472 
L 1039.017203 100.533781 
L 1043.448412 99.264561 
L 1048.47045 98.064943 
L 1053.787902 97.023726 
L 1059.696182 96.091197 
L 1066.490703 95.250762 
L 1074.171467 94.531109 
L 1083.033887 93.926407 
L 1087.76051 93.759318 
L 1089.532994 93.949967 
L 1091.010064 94.279129 
L 1092.782548 94.897518 
L 1094.555032 95.744461 
L 1096.62293 97.003311 
L 1098.986242 98.737552 
L 1101.644968 100.987175 
L 1104.894522 104.054385 
L 1109.030317 108.286567 
L 1110.211973 109.537606 
L 1110.507387 110.224206 
L 1111.098215 110.838744 
L 1111.393629 111.510635 
L 1112.575285 112.717562 
L 1115.234011 118.315498 
L 1117.892737 123.36897 
L 1120.551463 127.930933 
L 1121.437705 129.350764 
L 1121.733119 129.46597 
L 1123.801017 132.587697 
L 1124.391845 132.755727 
L 1124.982673 133.599181 
L 1125.573501 133.759741 
L 1126.164329 134.580624 
L 1126.755157 134.837008 
L 1129.413882 138.283572 
L 1132.072608 141.394917 
L 1132.368022 141.721378 
L 1132.95885 141.7896 
L 1160.432351 141.7896 
L 1160.432351 141.7896 
" style="fill:none;stroke:#ff7f0e;stroke-linecap:round;stroke-width:1.5;"/>
   </g>
   <g id="patch_23">
    <path d="M 974.631724 141.7896 
L 974.631724 36.2016 
" style="fill:none;stroke:#cccccc;stroke-linecap:square;stroke-linejoin:miter;stroke-width:0.8;"/>
   </g>
   <g id="patch_24">
    <path d="M 1169.28 141.7896 
L 1169.28 36.2016 
" style="fill:none;stroke:#cccccc;stroke-linecap:square;stroke-linejoin:miter;stroke-width:0.8;"/>
   </g>
   <g id="patch_25">
    <path d="M 974.631724 141.7896 
L 1169.28 141.7896 
" style="fill:none;stroke:#cccccc;stroke-linecap:square;stroke-linejoin:miter;stroke-width:0.8;"/>
   </g>
   <g id="patch_26">
    <path d="M 974.631724 36.2016 
L 1169.28 36.2016 
" style="fill:none;stroke:#cccccc;stroke-linecap:square;stroke-linejoin:miter;stroke-width:0.8;"/>
   </g>
   <g id="text_30">
    <!-- 4 -->
    <defs>
     <path d="M 32.328125 0 
L 32.328125 17.140625 
L 1.265625 17.140625 
L 1.265625 25.203125 
L 33.9375 71.578125 
L 41.109375 71.578125 
L 41.109375 25.203125 
L 50.78125 25.203125 
L 50.78125 17.140625 
L 41.109375 17.140625 
L 41.109375 0 
z
M 32.328125 25.203125 
L 32.328125 57.46875 
L 9.90625 25.203125 
z
" id="ArialMT-52"/>
    </defs>
    <g style="fill:#262626;" transform="translate(1068.6193 30.2016)scale(0.12 -0.12)">
     <use xlink:href="#ArialMT-52"/>
    </g>
   </g>
  </g>
  <g id="axes_6">
   <g id="patch_27">
    <path d="M 40.32 268.4952 
L 234.968276 268.4952 
L 234.968276 162.9072 
L 40.32 162.9072 
z
" style="fill:#ffffff;"/>
   </g>
   <g id="matplotlib.axis_11">
    <g id="xtick_1">
     <g id="line2d_36">
      <path clip-path="url(#pc2dab1a3a1)" d="M 49.167649 268.4952 
L 49.167649 162.9072 
" style="fill:none;stroke:#cccccc;stroke-linecap:round;stroke-width:0.8;"/>
     </g>
     <g id="text_31">
      <!-- 0 -->
      <g style="fill:#262626;" transform="translate(46.38718 282.653012)scale(0.1 -0.1)">
       <use xlink:href="#ArialMT-48"/>
      </g>
     </g>
    </g>
    <g id="xtick_2">
     <g id="line2d_37">
      <path clip-path="url(#pc2dab1a3a1)" d="M 108.250446 268.4952 
L 108.250446 162.9072 
" style="fill:none;stroke:#cccccc;stroke-linecap:round;stroke-width:0.8;"/>
     </g>
     <g id="text_32">
      <!-- 200 -->
      <g style="fill:#262626;" transform="translate(99.90904 282.653012)scale(0.1 -0.1)">
       <use xlink:href="#ArialMT-50"/>
       <use x="55.615234" xlink:href="#ArialMT-48"/>
       <use x="111.230469" xlink:href="#ArialMT-48"/>
      </g>
     </g>
    </g>
    <g id="xtick_3">
     <g id="line2d_38">
      <path clip-path="url(#pc2dab1a3a1)" d="M 167.333244 268.4952 
L 167.333244 162.9072 
" style="fill:none;stroke:#cccccc;stroke-linecap:round;stroke-width:0.8;"/>
     </g>
     <g id="text_33">
      <!-- 400 -->
      <g style="fill:#262626;" transform="translate(158.991837 282.653012)scale(0.1 -0.1)">
       <use xlink:href="#ArialMT-52"/>
       <use x="55.615234" xlink:href="#ArialMT-48"/>
       <use x="111.230469" xlink:href="#ArialMT-48"/>
      </g>
     </g>
    </g>
    <g id="xtick_4">
     <g id="line2d_39">
      <path clip-path="url(#pc2dab1a3a1)" d="M 226.416041 268.4952 
L 226.416041 162.9072 
" style="fill:none;stroke:#cccccc;stroke-linecap:round;stroke-width:0.8;"/>
     </g>
     <g id="text_34">
      <!-- 600 -->
      <defs>
       <path d="M 49.75 54.046875 
L 41.015625 53.375 
Q 39.84375 58.546875 37.703125 60.890625 
Q 34.125 64.65625 28.90625 64.65625 
Q 24.703125 64.65625 21.53125 62.3125 
Q 17.390625 59.28125 14.984375 53.46875 
Q 12.59375 47.65625 12.5 36.921875 
Q 15.671875 41.75 20.265625 44.09375 
Q 24.859375 46.4375 29.890625 46.4375 
Q 38.671875 46.4375 44.84375 39.96875 
Q 51.03125 33.5 51.03125 23.25 
Q 51.03125 16.5 48.125 10.71875 
Q 45.21875 4.9375 40.140625 1.859375 
Q 35.0625 -1.21875 28.609375 -1.21875 
Q 17.625 -1.21875 10.6875 6.859375 
Q 3.765625 14.9375 3.765625 33.5 
Q 3.765625 54.25 11.421875 63.671875 
Q 18.109375 71.875 29.4375 71.875 
Q 37.890625 71.875 43.28125 67.140625 
Q 48.6875 62.40625 49.75 54.046875 
z
M 13.875 23.1875 
Q 13.875 18.65625 15.796875 14.5 
Q 17.71875 10.359375 21.1875 8.171875 
Q 24.65625 6 28.46875 6 
Q 34.03125 6 38.03125 10.484375 
Q 42.046875 14.984375 42.046875 22.703125 
Q 42.046875 30.125 38.078125 34.390625 
Q 34.125 38.671875 28.125 38.671875 
Q 22.171875 38.671875 18.015625 34.390625 
Q 13.875 30.125 13.875 23.1875 
z
" id="ArialMT-54"/>
      </defs>
      <g style="fill:#262626;" transform="translate(218.074635 282.653012)scale(0.1 -0.1)">
       <use xlink:href="#ArialMT-54"/>
       <use x="55.615234" xlink:href="#ArialMT-48"/>
       <use x="111.230469" xlink:href="#ArialMT-48"/>
      </g>
     </g>
    </g>
   </g>
   <g id="matplotlib.axis_12">
    <g id="ytick_26">
     <g id="line2d_40">
      <path clip-path="url(#pc2dab1a3a1)" d="M 40.32 268.4952 
L 234.968276 268.4952 
" style="fill:none;stroke:#cccccc;stroke-linecap:round;stroke-width:0.8;"/>
     </g>
     <g id="text_35">
      <!-- 0.0 -->
      <defs>
       <path d="M 9.078125 0 
L 9.078125 10.015625 
L 19.09375 10.015625 
L 19.09375 0 
z
" id="ArialMT-46"/>
      </defs>
      <g style="fill:#262626;" transform="translate(19.42 272.074106)scale(0.1 -0.1)">
       <use xlink:href="#ArialMT-48"/>
       <use x="55.615234" xlink:href="#ArialMT-46"/>
       <use x="83.398438" xlink:href="#ArialMT-48"/>
      </g>
     </g>
    </g>
    <g id="ytick_27">
     <g id="line2d_41">
      <path clip-path="url(#pc2dab1a3a1)" d="M 40.32 246.4977 
L 234.968276 246.4977 
" style="fill:none;stroke:#cccccc;stroke-linecap:round;stroke-width:0.8;"/>
     </g>
     <g id="text_36">
      <!-- 2.5 -->
      <g style="fill:#262626;" transform="translate(19.42 250.076606)scale(0.1 -0.1)">
       <use xlink:href="#ArialMT-50"/>
       <use x="55.615234" xlink:href="#ArialMT-46"/>
       <use x="83.398438" xlink:href="#ArialMT-53"/>
      </g>
     </g>
    </g>
    <g id="ytick_28">
     <g id="line2d_42">
      <path clip-path="url(#pc2dab1a3a1)" d="M 40.32 224.5002 
L 234.968276 224.5002 
" style="fill:none;stroke:#cccccc;stroke-linecap:round;stroke-width:0.8;"/>
     </g>
     <g id="text_37">
      <!-- 5.0 -->
      <g style="fill:#262626;" transform="translate(19.42 228.079106)scale(0.1 -0.1)">
       <use xlink:href="#ArialMT-53"/>
       <use x="55.615234" xlink:href="#ArialMT-46"/>
       <use x="83.398438" xlink:href="#ArialMT-48"/>
      </g>
     </g>
    </g>
    <g id="ytick_29">
     <g id="line2d_43">
      <path clip-path="url(#pc2dab1a3a1)" d="M 40.32 202.5027 
L 234.968276 202.5027 
" style="fill:none;stroke:#cccccc;stroke-linecap:round;stroke-width:0.8;"/>
     </g>
     <g id="text_38">
      <!-- 7.5 -->
      <g style="fill:#262626;" transform="translate(19.42 206.081606)scale(0.1 -0.1)">
       <use xlink:href="#ArialMT-55"/>
       <use x="55.615234" xlink:href="#ArialMT-46"/>
       <use x="83.398438" xlink:href="#ArialMT-53"/>
      </g>
     </g>
    </g>
    <g id="ytick_30">
     <g id="line2d_44">
      <path clip-path="url(#pc2dab1a3a1)" d="M 40.32 180.5052 
L 234.968276 180.5052 
" style="fill:none;stroke:#cccccc;stroke-linecap:round;stroke-width:0.8;"/>
     </g>
     <g id="text_39">
      <!-- 10.0 -->
      <g style="fill:#262626;" transform="translate(13.859062 184.084106)scale(0.1 -0.1)">
       <use xlink:href="#ArialMT-49"/>
       <use x="55.615234" xlink:href="#ArialMT-48"/>
       <use x="111.230469" xlink:href="#ArialMT-46"/>
       <use x="139.013672" xlink:href="#ArialMT-48"/>
      </g>
     </g>
    </g>
   </g>
   <g id="line2d_45">
    <path clip-path="url(#pc2dab1a3a1)" d="M 49.167649 224.5002 
L 101.160511 224.5002 
L 101.751339 225.349512 
L 102.932994 227.267687 
L 103.228408 268.4952 
L 106.773376 268.4952 
L 107.06879 227.733754 
L 107.364204 268.4952 
L 108.841274 268.4952 
L 109.136688 228.194553 
L 109.432102 268.4952 
L 110.02293 268.4952 
L 110.318344 228.650143 
L 110.613758 268.4952 
L 110.909172 268.4952 
L 111.204586 239.378113 
L 111.5 229.429745 
L 111.795414 268.4952 
L 112.090828 268.4952 
L 112.386242 229.871371 
L 112.681656 230.308005 
L 112.97707 268.4952 
L 113.272484 268.4952 
L 113.567898 230.739702 
L 113.863312 231.16652 
L 114.158726 268.4952 
L 114.45414 268.4952 
L 114.749554 231.588512 
L 115.044968 232.005734 
L 115.340382 268.4952 
L 115.635796 268.4952 
L 115.93121 232.418239 
L 116.226624 232.826081 
L 116.522038 268.4952 
L 116.817452 268.4952 
L 117.112866 233.229312 
L 117.703694 234.022151 
L 117.999108 268.4952 
L 118.294522 234.411861 
L 118.88535 235.178115 
L 119.180764 268.4952 
L 119.476178 235.554757 
L 119.771592 235.927141 
L 120.067006 268.4952 
L 226.120627 268.4952 
L 226.120627 268.4952 
" style="fill:none;stroke:#1f77b4;stroke-linecap:round;stroke-width:1.5;"/>
   </g>
   <g id="line2d_46">
    <path clip-path="url(#pc2dab1a3a1)" d="M 49.167649 224.5002 
L 101.160511 224.5002 
L 101.751339 225.349512 
L 104.410064 229.54593 
L 107.06879 233.334197 
L 107.955032 234.513229 
L 108.250446 268.4952 
L 110.613758 268.4952 
L 110.909172 234.897388 
L 111.204586 243.943336 
L 111.5 235.554757 
L 111.795414 235.927141 
L 112.090828 268.4952 
L 226.120627 268.4952 
L 226.120627 268.4952 
" style="fill:none;stroke:#ff7f0e;stroke-linecap:round;stroke-width:1.5;"/>
   </g>
   <g id="patch_28">
    <path d="M 40.32 268.4952 
L 40.32 162.9072 
" style="fill:none;stroke:#cccccc;stroke-linecap:square;stroke-linejoin:miter;stroke-width:0.8;"/>
   </g>
   <g id="patch_29">
    <path d="M 234.968276 268.4952 
L 234.968276 162.9072 
" style="fill:none;stroke:#cccccc;stroke-linecap:square;stroke-linejoin:miter;stroke-width:0.8;"/>
   </g>
   <g id="patch_30">
    <path d="M 40.32 268.4952 
L 234.968276 268.4952 
" style="fill:none;stroke:#cccccc;stroke-linecap:square;stroke-linejoin:miter;stroke-width:0.8;"/>
   </g>
   <g id="patch_31">
    <path d="M 40.32 162.9072 
L 234.968276 162.9072 
" style="fill:none;stroke:#cccccc;stroke-linecap:square;stroke-linejoin:miter;stroke-width:0.8;"/>
   </g>
  </g>
  <g id="axes_7">
   <g id="patch_32">
    <path d="M 273.897931 268.4952 
L 468.546207 268.4952 
L 468.546207 162.9072 
L 273.897931 162.9072 
z
" style="fill:#ffffff;"/>
   </g>
   <g id="matplotlib.axis_13">
    <g id="xtick_5">
     <g id="line2d_47">
      <path clip-path="url(#p389641d2b7)" d="M 282.74558 268.4952 
L 282.74558 162.9072 
" style="fill:none;stroke:#cccccc;stroke-linecap:round;stroke-width:0.8;"/>
     </g>
     <g id="text_40">
      <!-- 0 -->
      <g style="fill:#262626;" transform="translate(279.965111 282.653012)scale(0.1 -0.1)">
       <use xlink:href="#ArialMT-48"/>
      </g>
     </g>
    </g>
    <g id="xtick_6">
     <g id="line2d_48">
      <path clip-path="url(#p389641d2b7)" d="M 341.828377 268.4952 
L 341.828377 162.9072 
" style="fill:none;stroke:#cccccc;stroke-linecap:round;stroke-width:0.8;"/>
     </g>
     <g id="text_41">
      <!-- 200 -->
      <g style="fill:#262626;" transform="translate(333.486971 282.653012)scale(0.1 -0.1)">
       <use xlink:href="#ArialMT-50"/>
       <use x="55.615234" xlink:href="#ArialMT-48"/>
       <use x="111.230469" xlink:href="#ArialMT-48"/>
      </g>
     </g>
    </g>
    <g id="xtick_7">
     <g id="line2d_49">
      <path clip-path="url(#p389641d2b7)" d="M 400.911175 268.4952 
L 400.911175 162.9072 
" style="fill:none;stroke:#cccccc;stroke-linecap:round;stroke-width:0.8;"/>
     </g>
     <g id="text_42">
      <!-- 400 -->
      <g style="fill:#262626;" transform="translate(392.569768 282.653012)scale(0.1 -0.1)">
       <use xlink:href="#ArialMT-52"/>
       <use x="55.615234" xlink:href="#ArialMT-48"/>
       <use x="111.230469" xlink:href="#ArialMT-48"/>
      </g>
     </g>
    </g>
    <g id="xtick_8">
     <g id="line2d_50">
      <path clip-path="url(#p389641d2b7)" d="M 459.993972 268.4952 
L 459.993972 162.9072 
" style="fill:none;stroke:#cccccc;stroke-linecap:round;stroke-width:0.8;"/>
     </g>
     <g id="text_43">
      <!-- 600 -->
      <g style="fill:#262626;" transform="translate(451.652566 282.653012)scale(0.1 -0.1)">
       <use xlink:href="#ArialMT-54"/>
       <use x="55.615234" xlink:href="#ArialMT-48"/>
       <use x="111.230469" xlink:href="#ArialMT-48"/>
      </g>
     </g>
    </g>
   </g>
   <g id="matplotlib.axis_14">
    <g id="ytick_31">
     <g id="line2d_51">
      <path clip-path="url(#p389641d2b7)" d="M 273.897931 268.4952 
L 468.546207 268.4952 
" style="fill:none;stroke:#cccccc;stroke-linecap:round;stroke-width:0.8;"/>
     </g>
     <g id="text_44">
      <!-- 0.0 -->
      <g style="fill:#262626;" transform="translate(252.997931 272.074106)scale(0.1 -0.1)">
       <use xlink:href="#ArialMT-48"/>
       <use x="55.615234" xlink:href="#ArialMT-46"/>
       <use x="83.398438" xlink:href="#ArialMT-48"/>
      </g>
     </g>
    </g>
    <g id="ytick_32">
     <g id="line2d_52">
      <path clip-path="url(#p389641d2b7)" d="M 273.897931 246.4977 
L 468.546207 246.4977 
" style="fill:none;stroke:#cccccc;stroke-linecap:round;stroke-width:0.8;"/>
     </g>
     <g id="text_45">
      <!-- 2.5 -->
      <g style="fill:#262626;" transform="translate(252.997931 250.076606)scale(0.1 -0.1)">
       <use xlink:href="#ArialMT-50"/>
       <use x="55.615234" xlink:href="#ArialMT-46"/>
       <use x="83.398438" xlink:href="#ArialMT-53"/>
      </g>
     </g>
    </g>
    <g id="ytick_33">
     <g id="line2d_53">
      <path clip-path="url(#p389641d2b7)" d="M 273.897931 224.5002 
L 468.546207 224.5002 
" style="fill:none;stroke:#cccccc;stroke-linecap:round;stroke-width:0.8;"/>
     </g>
     <g id="text_46">
      <!-- 5.0 -->
      <g style="fill:#262626;" transform="translate(252.997931 228.079106)scale(0.1 -0.1)">
       <use xlink:href="#ArialMT-53"/>
       <use x="55.615234" xlink:href="#ArialMT-46"/>
       <use x="83.398438" xlink:href="#ArialMT-48"/>
      </g>
     </g>
    </g>
    <g id="ytick_34">
     <g id="line2d_54">
      <path clip-path="url(#p389641d2b7)" d="M 273.897931 202.5027 
L 468.546207 202.5027 
" style="fill:none;stroke:#cccccc;stroke-linecap:round;stroke-width:0.8;"/>
     </g>
     <g id="text_47">
      <!-- 7.5 -->
      <g style="fill:#262626;" transform="translate(252.997931 206.081606)scale(0.1 -0.1)">
       <use xlink:href="#ArialMT-55"/>
       <use x="55.615234" xlink:href="#ArialMT-46"/>
       <use x="83.398438" xlink:href="#ArialMT-53"/>
      </g>
     </g>
    </g>
    <g id="ytick_35">
     <g id="line2d_55">
      <path clip-path="url(#p389641d2b7)" d="M 273.897931 180.5052 
L 468.546207 180.5052 
" style="fill:none;stroke:#cccccc;stroke-linecap:round;stroke-width:0.8;"/>
     </g>
     <g id="text_48">
      <!-- 10.0 -->
      <g style="fill:#262626;" transform="translate(247.436994 184.084106)scale(0.1 -0.1)">
       <use xlink:href="#ArialMT-49"/>
       <use x="55.615234" xlink:href="#ArialMT-48"/>
       <use x="111.230469" xlink:href="#ArialMT-46"/>
       <use x="139.013672" xlink:href="#ArialMT-48"/>
      </g>
     </g>
    </g>
   </g>
   <g id="line2d_56">
    <path clip-path="url(#p389641d2b7)" d="M 282.74558 180.5052 
L 293.971311 180.591715 
L 296.630037 184.862323 
L 299.288763 188.717565 
L 301.947489 192.19784 
L 304.606215 195.339619 
L 307.560355 198.473414 
L 310.514495 201.27043 
L 313.468635 203.76686 
L 316.718188 206.204203 
L 319.967742 208.35502 
L 323.217296 210.252995 
L 326.762264 212.069977 
L 330.602646 213.777835 
L 334.738442 215.3556 
L 339.760479 217.067359 
L 342.419205 222.069312 
L 343.600861 224.133317 
L 343.896275 224.174019 
L 345.668759 227.096573 
L 345.964173 227.108985 
L 346.850415 228.496763 
L 347.145829 228.498497 
L 347.736657 229.397693 
L 348.327485 229.509606 
L 348.918313 230.386071 
L 349.509141 230.379436 
L 350.099969 231.236345 
L 350.690797 231.230004 
L 351.281625 232.067791 
L 351.872453 232.061733 
L 352.463281 232.880821 
L 353.054109 232.875032 
L 353.349523 233.27771 
L 353.644937 268.4952 
L 354.235765 268.4952 
L 354.531179 232.493287 
L 354.826593 268.4952 
L 357.189905 268.4952 
L 357.485319 231.016826 
L 357.780733 268.4952 
L 358.076147 268.4952 
L 358.371561 231.440511 
L 358.666975 231.859406 
L 358.962389 268.4952 
L 359.553216 268.4952 
L 359.84863 232.273565 
L 360.144044 268.4952 
L 360.439458 268.4952 
L 360.734872 232.683042 
L 361.030286 255.985311 
L 361.3257 268.4952 
L 361.621114 268.4952 
L 361.916528 233.229312 
L 362.211942 233.627985 
L 362.507356 268.4952 
L 362.80277 268.4952 
L 363.098184 234.022151 
L 363.393598 268.4952 
L 363.984426 268.4952 
L 364.27984 234.411861 
L 364.575254 268.4952 
L 365.166082 268.4952 
L 365.461496 234.797166 
L 365.75691 268.4952 
L 366.347738 268.4952 
L 366.643152 235.178115 
L 366.938566 268.4952 
L 367.529394 268.4952 
L 367.824808 235.554757 
L 368.120222 268.4952 
L 368.71105 268.4952 
L 369.006464 235.927141 
L 369.301878 268.4952 
L 459.698558 268.4952 
L 459.698558 268.4952 
" style="fill:none;stroke:#1f77b4;stroke-linecap:round;stroke-width:1.5;"/>
   </g>
   <g id="line2d_57">
    <path clip-path="url(#p389641d2b7)" d="M 282.74558 180.5052 
L 293.971311 180.591715 
L 296.630037 184.862323 
L 299.288763 188.717565 
L 301.947489 192.19784 
L 304.606215 195.339619 
L 307.560355 198.473414 
L 310.514495 201.27043 
L 313.468635 203.76686 
L 316.718188 206.204203 
L 319.967742 208.35502 
L 323.217296 210.252995 
L 326.762264 212.069977 
L 330.602646 213.777835 
L 334.738442 215.3556 
L 341.532963 217.846517 
L 341.828377 268.4952 
L 344.487103 268.4952 
L 344.782517 213.943279 
L 345.077931 268.4952 
L 348.327485 268.4952 
L 348.622899 213.162049 
L 348.918313 268.4952 
L 350.986211 268.4952 
L 351.281625 213.787577 
L 351.577039 268.4952 
L 352.167867 268.4952 
L 352.463281 214.406035 
L 352.758695 268.4952 
L 353.349523 268.4952 
L 353.644937 215.017501 
L 353.940351 268.4952 
L 354.531179 268.4952 
L 354.826593 215.622054 
L 355.122007 268.4952 
L 355.712835 268.4952 
L 356.008249 216.219773 
L 356.303663 268.4952 
L 356.599077 268.4952 
L 356.894491 216.810735 
L 359.553216 221.837647 
L 362.211942 226.375634 
L 364.870668 230.472249 
L 367.23398 233.777951 
L 367.529394 247.137858 
L 367.824808 234.411861 
L 368.120222 234.797166 
L 368.415636 268.4952 
L 368.71105 268.4952 
L 369.006464 235.178115 
L 369.301878 268.4952 
L 369.892706 268.4952 
L 370.18812 235.554757 
L 370.483534 268.4952 
L 370.778948 235.927141 
L 371.074362 268.4952 
L 459.698558 268.4952 
L 459.698558 268.4952 
" style="fill:none;stroke:#ff7f0e;stroke-linecap:round;stroke-width:1.5;"/>
   </g>
   <g id="patch_33">
    <path d="M 273.897931 268.4952 
L 273.897931 162.9072 
" style="fill:none;stroke:#cccccc;stroke-linecap:square;stroke-linejoin:miter;stroke-width:0.8;"/>
   </g>
   <g id="patch_34">
    <path d="M 468.546207 268.4952 
L 468.546207 162.9072 
" style="fill:none;stroke:#cccccc;stroke-linecap:square;stroke-linejoin:miter;stroke-width:0.8;"/>
   </g>
   <g id="patch_35">
    <path d="M 273.897931 268.4952 
L 468.546207 268.4952 
" style="fill:none;stroke:#cccccc;stroke-linecap:square;stroke-linejoin:miter;stroke-width:0.8;"/>
   </g>
   <g id="patch_36">
    <path d="M 273.897931 162.9072 
L 468.546207 162.9072 
" style="fill:none;stroke:#cccccc;stroke-linecap:square;stroke-linejoin:miter;stroke-width:0.8;"/>
   </g>
  </g>
  <g id="axes_8">
   <g id="patch_37">
    <path d="M 507.475862 268.4952 
L 702.124138 268.4952 
L 702.124138 162.9072 
L 507.475862 162.9072 
z
" style="fill:#ffffff;"/>
   </g>
   <g id="matplotlib.axis_15">
    <g id="xtick_9">
     <g id="line2d_58">
      <path clip-path="url(#p5ff013f489)" d="M 516.323511 268.4952 
L 516.323511 162.9072 
" style="fill:none;stroke:#cccccc;stroke-linecap:round;stroke-width:0.8;"/>
     </g>
     <g id="text_49">
      <!-- 0 -->
      <g style="fill:#262626;" transform="translate(513.543042 282.653012)scale(0.1 -0.1)">
       <use xlink:href="#ArialMT-48"/>
      </g>
     </g>
    </g>
    <g id="xtick_10">
     <g id="line2d_59">
      <path clip-path="url(#p5ff013f489)" d="M 575.406308 268.4952 
L 575.406308 162.9072 
" style="fill:none;stroke:#cccccc;stroke-linecap:round;stroke-width:0.8;"/>
     </g>
     <g id="text_50">
      <!-- 200 -->
      <g style="fill:#262626;" transform="translate(567.064902 282.653012)scale(0.1 -0.1)">
       <use xlink:href="#ArialMT-50"/>
       <use x="55.615234" xlink:href="#ArialMT-48"/>
       <use x="111.230469" xlink:href="#ArialMT-48"/>
      </g>
     </g>
    </g>
    <g id="xtick_11">
     <g id="line2d_60">
      <path clip-path="url(#p5ff013f489)" d="M 634.489106 268.4952 
L 634.489106 162.9072 
" style="fill:none;stroke:#cccccc;stroke-linecap:round;stroke-width:0.8;"/>
     </g>
     <g id="text_51">
      <!-- 400 -->
      <g style="fill:#262626;" transform="translate(626.147699 282.653012)scale(0.1 -0.1)">
       <use xlink:href="#ArialMT-52"/>
       <use x="55.615234" xlink:href="#ArialMT-48"/>
       <use x="111.230469" xlink:href="#ArialMT-48"/>
      </g>
     </g>
    </g>
    <g id="xtick_12">
     <g id="line2d_61">
      <path clip-path="url(#p5ff013f489)" d="M 693.571903 268.4952 
L 693.571903 162.9072 
" style="fill:none;stroke:#cccccc;stroke-linecap:round;stroke-width:0.8;"/>
     </g>
     <g id="text_52">
      <!-- 600 -->
      <g style="fill:#262626;" transform="translate(685.230497 282.653012)scale(0.1 -0.1)">
       <use xlink:href="#ArialMT-54"/>
       <use x="55.615234" xlink:href="#ArialMT-48"/>
       <use x="111.230469" xlink:href="#ArialMT-48"/>
      </g>
     </g>
    </g>
   </g>
   <g id="matplotlib.axis_16">
    <g id="ytick_36">
     <g id="line2d_62">
      <path clip-path="url(#p5ff013f489)" d="M 507.475862 268.4952 
L 702.124138 268.4952 
" style="fill:none;stroke:#cccccc;stroke-linecap:round;stroke-width:0.8;"/>
     </g>
     <g id="text_53">
      <!-- 0.0 -->
      <g style="fill:#262626;" transform="translate(486.575862 272.074106)scale(0.1 -0.1)">
       <use xlink:href="#ArialMT-48"/>
       <use x="55.615234" xlink:href="#ArialMT-46"/>
       <use x="83.398438" xlink:href="#ArialMT-48"/>
      </g>
     </g>
    </g>
    <g id="ytick_37">
     <g id="line2d_63">
      <path clip-path="url(#p5ff013f489)" d="M 507.475862 246.4977 
L 702.124138 246.4977 
" style="fill:none;stroke:#cccccc;stroke-linecap:round;stroke-width:0.8;"/>
     </g>
     <g id="text_54">
      <!-- 2.5 -->
      <g style="fill:#262626;" transform="translate(486.575862 250.076606)scale(0.1 -0.1)">
       <use xlink:href="#ArialMT-50"/>
       <use x="55.615234" xlink:href="#ArialMT-46"/>
       <use x="83.398438" xlink:href="#ArialMT-53"/>
      </g>
     </g>
    </g>
    <g id="ytick_38">
     <g id="line2d_64">
      <path clip-path="url(#p5ff013f489)" d="M 507.475862 224.5002 
L 702.124138 224.5002 
" style="fill:none;stroke:#cccccc;stroke-linecap:round;stroke-width:0.8;"/>
     </g>
     <g id="text_55">
      <!-- 5.0 -->
      <g style="fill:#262626;" transform="translate(486.575862 228.079106)scale(0.1 -0.1)">
       <use xlink:href="#ArialMT-53"/>
       <use x="55.615234" xlink:href="#ArialMT-46"/>
       <use x="83.398438" xlink:href="#ArialMT-48"/>
      </g>
     </g>
    </g>
    <g id="ytick_39">
     <g id="line2d_65">
      <path clip-path="url(#p5ff013f489)" d="M 507.475862 202.5027 
L 702.124138 202.5027 
" style="fill:none;stroke:#cccccc;stroke-linecap:round;stroke-width:0.8;"/>
     </g>
     <g id="text_56">
      <!-- 7.5 -->
      <g style="fill:#262626;" transform="translate(486.575862 206.081606)scale(0.1 -0.1)">
       <use xlink:href="#ArialMT-55"/>
       <use x="55.615234" xlink:href="#ArialMT-46"/>
       <use x="83.398438" xlink:href="#ArialMT-53"/>
      </g>
     </g>
    </g>
    <g id="ytick_40">
     <g id="line2d_66">
      <path clip-path="url(#p5ff013f489)" d="M 507.475862 180.5052 
L 702.124138 180.5052 
" style="fill:none;stroke:#cccccc;stroke-linecap:round;stroke-width:0.8;"/>
     </g>
     <g id="text_57">
      <!-- 10.0 -->
      <g style="fill:#262626;" transform="translate(481.014925 184.084106)scale(0.1 -0.1)">
       <use xlink:href="#ArialMT-49"/>
       <use x="55.615234" xlink:href="#ArialMT-48"/>
       <use x="111.230469" xlink:href="#ArialMT-46"/>
       <use x="139.013672" xlink:href="#ArialMT-48"/>
      </g>
     </g>
    </g>
   </g>
   <g id="line2d_67">
    <path clip-path="url(#p5ff013f489)" d="M 516.323511 224.5002 
L 568.316373 224.5002 
L 568.907201 225.349512 
L 570.088857 227.267687 
L 570.384271 268.4952 
L 573.929238 268.4952 
L 574.224652 227.733754 
L 574.520066 268.4952 
L 575.997136 268.4952 
L 576.29255 228.194553 
L 576.587964 268.4952 
L 577.178792 268.4952 
L 577.474206 228.650143 
L 577.76962 268.4952 
L 578.065034 268.4952 
L 578.360448 239.378113 
L 578.655862 229.429745 
L 578.951276 268.4952 
L 579.24669 268.4952 
L 579.542104 229.871371 
L 579.837518 230.308005 
L 580.132932 268.4952 
L 580.428346 268.4952 
L 580.72376 230.739702 
L 581.019174 231.16652 
L 581.314588 268.4952 
L 581.610002 268.4952 
L 581.905416 231.588512 
L 582.20083 232.005734 
L 582.496244 268.4952 
L 582.791658 268.4952 
L 583.087072 232.418239 
L 583.382486 232.826081 
L 583.6779 268.4952 
L 583.973314 268.4952 
L 584.268728 233.229312 
L 584.859556 234.022151 
L 585.15497 268.4952 
L 585.450384 234.411861 
L 586.041212 235.178115 
L 586.336626 268.4952 
L 586.63204 235.554757 
L 586.927454 235.927141 
L 587.222868 268.4952 
L 693.276489 268.4952 
L 693.276489 268.4952 
" style="fill:none;stroke:#1f77b4;stroke-linecap:round;stroke-width:1.5;"/>
   </g>
   <g id="line2d_68">
    <path clip-path="url(#p5ff013f489)" d="M 516.323511 224.5002 
L 568.316373 224.5002 
L 568.907201 225.349512 
L 571.565926 229.54593 
L 574.224652 233.334197 
L 575.110894 234.513229 
L 575.406308 268.4952 
L 577.76962 268.4952 
L 578.065034 234.897388 
L 578.360448 243.943336 
L 578.655862 235.554757 
L 578.951276 235.927141 
L 579.24669 268.4952 
L 693.276489 268.4952 
L 693.276489 268.4952 
" style="fill:none;stroke:#ff7f0e;stroke-linecap:round;stroke-width:1.5;"/>
   </g>
   <g id="patch_38">
    <path d="M 507.475862 268.4952 
L 507.475862 162.9072 
" style="fill:none;stroke:#cccccc;stroke-linecap:square;stroke-linejoin:miter;stroke-width:0.8;"/>
   </g>
   <g id="patch_39">
    <path d="M 702.124138 268.4952 
L 702.124138 162.9072 
" style="fill:none;stroke:#cccccc;stroke-linecap:square;stroke-linejoin:miter;stroke-width:0.8;"/>
   </g>
   <g id="patch_40">
    <path d="M 507.475862 268.4952 
L 702.124138 268.4952 
" style="fill:none;stroke:#cccccc;stroke-linecap:square;stroke-linejoin:miter;stroke-width:0.8;"/>
   </g>
   <g id="patch_41">
    <path d="M 507.475862 162.9072 
L 702.124138 162.9072 
" style="fill:none;stroke:#cccccc;stroke-linecap:square;stroke-linejoin:miter;stroke-width:0.8;"/>
   </g>
  </g>
  <g id="axes_9">
   <g id="patch_42">
    <path d="M 741.053793 268.4952 
L 935.702069 268.4952 
L 935.702069 162.9072 
L 741.053793 162.9072 
z
" style="fill:#ffffff;"/>
   </g>
   <g id="matplotlib.axis_17">
    <g id="xtick_13">
     <g id="line2d_69">
      <path clip-path="url(#pf6694dc1c3)" d="M 749.901442 268.4952 
L 749.901442 162.9072 
" style="fill:none;stroke:#cccccc;stroke-linecap:round;stroke-width:0.8;"/>
     </g>
     <g id="text_58">
      <!-- 0 -->
      <g style="fill:#262626;" transform="translate(747.120973 282.653012)scale(0.1 -0.1)">
       <use xlink:href="#ArialMT-48"/>
      </g>
     </g>
    </g>
    <g id="xtick_14">
     <g id="line2d_70">
      <path clip-path="url(#pf6694dc1c3)" d="M 808.984239 268.4952 
L 808.984239 162.9072 
" style="fill:none;stroke:#cccccc;stroke-linecap:round;stroke-width:0.8;"/>
     </g>
     <g id="text_59">
      <!-- 200 -->
      <g style="fill:#262626;" transform="translate(800.642833 282.653012)scale(0.1 -0.1)">
       <use xlink:href="#ArialMT-50"/>
       <use x="55.615234" xlink:href="#ArialMT-48"/>
       <use x="111.230469" xlink:href="#ArialMT-48"/>
      </g>
     </g>
    </g>
    <g id="xtick_15">
     <g id="line2d_71">
      <path clip-path="url(#pf6694dc1c3)" d="M 868.067037 268.4952 
L 868.067037 162.9072 
" style="fill:none;stroke:#cccccc;stroke-linecap:round;stroke-width:0.8;"/>
     </g>
     <g id="text_60">
      <!-- 400 -->
      <g style="fill:#262626;" transform="translate(859.72563 282.653012)scale(0.1 -0.1)">
       <use xlink:href="#ArialMT-52"/>
       <use x="55.615234" xlink:href="#ArialMT-48"/>
       <use x="111.230469" xlink:href="#ArialMT-48"/>
      </g>
     </g>
    </g>
    <g id="xtick_16">
     <g id="line2d_72">
      <path clip-path="url(#pf6694dc1c3)" d="M 927.149834 268.4952 
L 927.149834 162.9072 
" style="fill:none;stroke:#cccccc;stroke-linecap:round;stroke-width:0.8;"/>
     </g>
     <g id="text_61">
      <!-- 600 -->
      <g style="fill:#262626;" transform="translate(918.808428 282.653012)scale(0.1 -0.1)">
       <use xlink:href="#ArialMT-54"/>
       <use x="55.615234" xlink:href="#ArialMT-48"/>
       <use x="111.230469" xlink:href="#ArialMT-48"/>
      </g>
     </g>
    </g>
   </g>
   <g id="matplotlib.axis_18">
    <g id="ytick_41">
     <g id="line2d_73">
      <path clip-path="url(#pf6694dc1c3)" d="M 741.053793 268.4952 
L 935.702069 268.4952 
" style="fill:none;stroke:#cccccc;stroke-linecap:round;stroke-width:0.8;"/>
     </g>
     <g id="text_62">
      <!-- 0.0 -->
      <g style="fill:#262626;" transform="translate(720.153793 272.074106)scale(0.1 -0.1)">
       <use xlink:href="#ArialMT-48"/>
       <use x="55.615234" xlink:href="#ArialMT-46"/>
       <use x="83.398438" xlink:href="#ArialMT-48"/>
      </g>
     </g>
    </g>
    <g id="ytick_42">
     <g id="line2d_74">
      <path clip-path="url(#pf6694dc1c3)" d="M 741.053793 246.4977 
L 935.702069 246.4977 
" style="fill:none;stroke:#cccccc;stroke-linecap:round;stroke-width:0.8;"/>
     </g>
     <g id="text_63">
      <!-- 2.5 -->
      <g style="fill:#262626;" transform="translate(720.153793 250.076606)scale(0.1 -0.1)">
       <use xlink:href="#ArialMT-50"/>
       <use x="55.615234" xlink:href="#ArialMT-46"/>
       <use x="83.398438" xlink:href="#ArialMT-53"/>
      </g>
     </g>
    </g>
    <g id="ytick_43">
     <g id="line2d_75">
      <path clip-path="url(#pf6694dc1c3)" d="M 741.053793 224.5002 
L 935.702069 224.5002 
" style="fill:none;stroke:#cccccc;stroke-linecap:round;stroke-width:0.8;"/>
     </g>
     <g id="text_64">
      <!-- 5.0 -->
      <g style="fill:#262626;" transform="translate(720.153793 228.079106)scale(0.1 -0.1)">
       <use xlink:href="#ArialMT-53"/>
       <use x="55.615234" xlink:href="#ArialMT-46"/>
       <use x="83.398438" xlink:href="#ArialMT-48"/>
      </g>
     </g>
    </g>
    <g id="ytick_44">
     <g id="line2d_76">
      <path clip-path="url(#pf6694dc1c3)" d="M 741.053793 202.5027 
L 935.702069 202.5027 
" style="fill:none;stroke:#cccccc;stroke-linecap:round;stroke-width:0.8;"/>
     </g>
     <g id="text_65">
      <!-- 7.5 -->
      <g style="fill:#262626;" transform="translate(720.153793 206.081606)scale(0.1 -0.1)">
       <use xlink:href="#ArialMT-55"/>
       <use x="55.615234" xlink:href="#ArialMT-46"/>
       <use x="83.398438" xlink:href="#ArialMT-53"/>
      </g>
     </g>
    </g>
    <g id="ytick_45">
     <g id="line2d_77">
      <path clip-path="url(#pf6694dc1c3)" d="M 741.053793 180.5052 
L 935.702069 180.5052 
" style="fill:none;stroke:#cccccc;stroke-linecap:round;stroke-width:0.8;"/>
     </g>
     <g id="text_66">
      <!-- 10.0 -->
      <g style="fill:#262626;" transform="translate(714.592856 184.084106)scale(0.1 -0.1)">
       <use xlink:href="#ArialMT-49"/>
       <use x="55.615234" xlink:href="#ArialMT-48"/>
       <use x="111.230469" xlink:href="#ArialMT-46"/>
       <use x="139.013672" xlink:href="#ArialMT-48"/>
      </g>
     </g>
    </g>
   </g>
   <g id="line2d_78">
    <path clip-path="url(#pf6694dc1c3)" d="M 749.901442 180.5052 
L 845.024746 180.5052 
L 845.32016 180.714208 
L 845.910988 182.311037 
L 846.79723 185.200997 
L 847.092644 185.770234 
L 847.978886 188.544199 
L 848.2743 189.079853 
L 850.637611 195.984194 
L 853.296337 203.036728 
L 855.955063 209.403322 
L 856.250477 268.4952 
L 857.136719 268.4952 
L 857.432133 210.071342 
L 857.727547 210.731811 
L 858.022961 268.4952 
L 858.318375 211.384813 
L 860.977101 216.939459 
L 863.635827 221.953852 
L 864.817483 224.02299 
L 865.112897 250.779681 
L 865.408311 224.726009 
L 868.067037 228.983069 
L 870.725763 232.826081 
L 871.021177 268.4952 
L 871.316591 233.229312 
L 872.79366 235.178115 
L 873.089074 268.4952 
L 873.384488 235.554757 
L 873.679902 235.927141 
L 873.975316 268.4952 
L 926.85442 268.4952 
L 926.85442 268.4952 
" style="fill:none;stroke:#1f77b4;stroke-linecap:round;stroke-width:1.5;"/>
   </g>
   <g id="line2d_79">
    <path clip-path="url(#pf6694dc1c3)" d="M 749.901442 180.5052 
L 843.84309 180.5052 
L 845.024746 182.698662 
L 847.388058 187.26332 
L 847.978886 189.089555 
L 848.2743 189.610576 
L 849.160542 192.255765 
L 849.455956 192.74525 
L 849.75137 193.601587 
L 850.046784 194.080067 
L 852.705509 201.3178 
L 855.364235 207.85158 
L 858.022961 213.749874 
L 860.681687 219.07449 
L 863.340413 223.881226 
L 865.999139 228.220451 
L 867.771623 230.876182 
L 868.067037 268.4952 
L 868.362451 231.301456 
L 868.657865 231.721923 
L 868.953279 268.4952 
L 869.248693 232.137637 
L 870.134935 233.356792 
L 870.430349 268.4952 
L 878.997354 268.4952 
L 879.292768 233.754024 
L 879.588182 268.4952 
L 881.360666 268.4952 
L 881.65608 234.146765 
L 881.951494 234.535067 
L 882.246908 268.4952 
L 882.542322 268.4952 
L 882.837736 234.918978 
L 883.13315 235.29855 
L 883.428564 268.4952 
L 883.723978 268.4952 
L 884.019392 235.673831 
L 884.314806 246.341124 
L 884.61022 268.4952 
L 926.85442 268.4952 
L 926.85442 268.4952 
" style="fill:none;stroke:#ff7f0e;stroke-linecap:round;stroke-width:1.5;"/>
   </g>
   <g id="patch_43">
    <path d="M 741.053793 268.4952 
L 741.053793 162.9072 
" style="fill:none;stroke:#cccccc;stroke-linecap:square;stroke-linejoin:miter;stroke-width:0.8;"/>
   </g>
   <g id="patch_44">
    <path d="M 935.702069 268.4952 
L 935.702069 162.9072 
" style="fill:none;stroke:#cccccc;stroke-linecap:square;stroke-linejoin:miter;stroke-width:0.8;"/>
   </g>
   <g id="patch_45">
    <path d="M 741.053793 268.4952 
L 935.702069 268.4952 
" style="fill:none;stroke:#cccccc;stroke-linecap:square;stroke-linejoin:miter;stroke-width:0.8;"/>
   </g>
   <g id="patch_46">
    <path d="M 741.053793 162.9072 
L 935.702069 162.9072 
" style="fill:none;stroke:#cccccc;stroke-linecap:square;stroke-linejoin:miter;stroke-width:0.8;"/>
   </g>
  </g>
  <g id="axes_10">
   <g id="patch_47">
    <path d="M 974.631724 268.4952 
L 1169.28 268.4952 
L 1169.28 162.9072 
L 974.631724 162.9072 
z
" style="fill:#ffffff;"/>
   </g>
   <g id="matplotlib.axis_19">
    <g id="xtick_17">
     <g id="line2d_80">
      <path clip-path="url(#pf4b1b56f14)" d="M 983.479373 268.4952 
L 983.479373 162.9072 
" style="fill:none;stroke:#cccccc;stroke-linecap:round;stroke-width:0.8;"/>
     </g>
     <g id="text_67">
      <!-- 0 -->
      <g style="fill:#262626;" transform="translate(980.698904 282.653012)scale(0.1 -0.1)">
       <use xlink:href="#ArialMT-48"/>
      </g>
     </g>
    </g>
    <g id="xtick_18">
     <g id="line2d_81">
      <path clip-path="url(#pf4b1b56f14)" d="M 1042.56217 268.4952 
L 1042.56217 162.9072 
" style="fill:none;stroke:#cccccc;stroke-linecap:round;stroke-width:0.8;"/>
     </g>
     <g id="text_68">
      <!-- 200 -->
      <g style="fill:#262626;" transform="translate(1034.220764 282.653012)scale(0.1 -0.1)">
       <use xlink:href="#ArialMT-50"/>
       <use x="55.615234" xlink:href="#ArialMT-48"/>
       <use x="111.230469" xlink:href="#ArialMT-48"/>
      </g>
     </g>
    </g>
    <g id="xtick_19">
     <g id="line2d_82">
      <path clip-path="url(#pf4b1b56f14)" d="M 1101.644968 268.4952 
L 1101.644968 162.9072 
" style="fill:none;stroke:#cccccc;stroke-linecap:round;stroke-width:0.8;"/>
     </g>
     <g id="text_69">
      <!-- 400 -->
      <g style="fill:#262626;" transform="translate(1093.303561 282.653012)scale(0.1 -0.1)">
       <use xlink:href="#ArialMT-52"/>
       <use x="55.615234" xlink:href="#ArialMT-48"/>
       <use x="111.230469" xlink:href="#ArialMT-48"/>
      </g>
     </g>
    </g>
    <g id="xtick_20">
     <g id="line2d_83">
      <path clip-path="url(#pf4b1b56f14)" d="M 1160.727765 268.4952 
L 1160.727765 162.9072 
" style="fill:none;stroke:#cccccc;stroke-linecap:round;stroke-width:0.8;"/>
     </g>
     <g id="text_70">
      <!-- 600 -->
      <g style="fill:#262626;" transform="translate(1152.386359 282.653012)scale(0.1 -0.1)">
       <use xlink:href="#ArialMT-54"/>
       <use x="55.615234" xlink:href="#ArialMT-48"/>
       <use x="111.230469" xlink:href="#ArialMT-48"/>
      </g>
     </g>
    </g>
   </g>
   <g id="matplotlib.axis_20">
    <g id="ytick_46">
     <g id="line2d_84">
      <path clip-path="url(#pf4b1b56f14)" d="M 974.631724 268.4952 
L 1169.28 268.4952 
" style="fill:none;stroke:#cccccc;stroke-linecap:round;stroke-width:0.8;"/>
     </g>
     <g id="text_71">
      <!-- 0.0 -->
      <g style="fill:#262626;" transform="translate(953.731724 272.074106)scale(0.1 -0.1)">
       <use xlink:href="#ArialMT-48"/>
       <use x="55.615234" xlink:href="#ArialMT-46"/>
       <use x="83.398438" xlink:href="#ArialMT-48"/>
      </g>
     </g>
    </g>
    <g id="ytick_47">
     <g id="line2d_85">
      <path clip-path="url(#pf4b1b56f14)" d="M 974.631724 246.4977 
L 1169.28 246.4977 
" style="fill:none;stroke:#cccccc;stroke-linecap:round;stroke-width:0.8;"/>
     </g>
     <g id="text_72">
      <!-- 2.5 -->
      <g style="fill:#262626;" transform="translate(953.731724 250.076606)scale(0.1 -0.1)">
       <use xlink:href="#ArialMT-50"/>
       <use x="55.615234" xlink:href="#ArialMT-46"/>
       <use x="83.398438" xlink:href="#ArialMT-53"/>
      </g>
     </g>
    </g>
    <g id="ytick_48">
     <g id="line2d_86">
      <path clip-path="url(#pf4b1b56f14)" d="M 974.631724 224.5002 
L 1169.28 224.5002 
" style="fill:none;stroke:#cccccc;stroke-linecap:round;stroke-width:0.8;"/>
     </g>
     <g id="text_73">
      <!-- 5.0 -->
      <g style="fill:#262626;" transform="translate(953.731724 228.079106)scale(0.1 -0.1)">
       <use xlink:href="#ArialMT-53"/>
       <use x="55.615234" xlink:href="#ArialMT-46"/>
       <use x="83.398438" xlink:href="#ArialMT-48"/>
      </g>
     </g>
    </g>
    <g id="ytick_49">
     <g id="line2d_87">
      <path clip-path="url(#pf4b1b56f14)" d="M 974.631724 202.5027 
L 1169.28 202.5027 
" style="fill:none;stroke:#cccccc;stroke-linecap:round;stroke-width:0.8;"/>
     </g>
     <g id="text_74">
      <!-- 7.5 -->
      <g style="fill:#262626;" transform="translate(953.731724 206.081606)scale(0.1 -0.1)">
       <use xlink:href="#ArialMT-55"/>
       <use x="55.615234" xlink:href="#ArialMT-46"/>
       <use x="83.398438" xlink:href="#ArialMT-53"/>
      </g>
     </g>
    </g>
    <g id="ytick_50">
     <g id="line2d_88">
      <path clip-path="url(#pf4b1b56f14)" d="M 974.631724 180.5052 
L 1169.28 180.5052 
" style="fill:none;stroke:#cccccc;stroke-linecap:round;stroke-width:0.8;"/>
     </g>
     <g id="text_75">
      <!-- 10.0 -->
      <g style="fill:#262626;" transform="translate(948.170787 184.084106)scale(0.1 -0.1)">
       <use xlink:href="#ArialMT-49"/>
       <use x="55.615234" xlink:href="#ArialMT-48"/>
       <use x="111.230469" xlink:href="#ArialMT-46"/>
       <use x="139.013672" xlink:href="#ArialMT-48"/>
      </g>
     </g>
    </g>
   </g>
   <g id="line2d_89">
    <path clip-path="url(#pf4b1b56f14)" d="M 983.479373 268.4952 
L 992.046379 268.4952 
L 992.341793 236.295316 
L 995.000519 230.869081 
L 997.659244 225.970611 
L 1000.31797 221.548574 
L 1002.976696 217.556631 
L 1005.635422 213.95295 
L 1008.294148 210.699769 
L 1011.248288 207.454855 
L 1014.202428 204.558661 
L 1017.156568 201.973712 
L 1020.110707 199.666559 
L 1023.360261 197.414013 
L 1026.609815 195.426268 
L 1030.154783 193.523346 
L 1033.699751 191.863109 
L 1037.540133 190.302583 
L 1041.675928 188.860926 
L 1046.107138 187.550845 
L 1050.833762 186.379008 
L 1056.151214 185.291981 
L 1062.059494 184.318424 
L 1068.558601 183.474581 
L 1075.943951 182.739939 
L 1084.510957 182.11228 
L 1088.942166 181.92748 
L 1090.419236 182.148653 
L 1091.896306 182.585867 
L 1093.373376 183.234636 
L 1095.14586 184.262738 
L 1097.213758 185.756831 
L 1098.690828 186.988873 
L 1099.872484 190.612488 
L 1100.463312 191.057423 
L 1100.758726 191.93284 
L 1103.122038 193.8193 
L 1105.780764 196.238235 
L 1107.553247 197.986394 
L 1107.848661 198.58321 
L 1111.689043 202.576739 
L 1113.461527 204.504036 
L 1113.756941 205.227442 
L 1115.529425 207.139486 
L 1115.824839 207.833098 
L 1116.415667 208.46054 
L 1119.074393 214.299605 
L 1121.733119 219.570754 
L 1124.391845 224.329222 
L 1124.982673 225.322151 
L 1125.278087 268.4952 
L 1125.868915 268.4952 
L 1126.164329 225.810213 
L 1128.527641 229.52123 
L 1128.823055 268.4952 
L 1129.413882 268.4952 
L 1129.709296 229.961822 
L 1130.00471 230.397433 
L 1130.300124 268.4952 
L 1130.595538 268.4952 
L 1130.890952 230.828119 
L 1131.186366 231.253937 
L 1131.48178 268.4952 
L 1131.777194 268.4952 
L 1132.072608 231.674941 
L 1132.368022 268.4952 
L 1132.95885 268.4952 
L 1133.254264 232.091186 
L 1133.549678 239.891743 
L 1133.845092 268.4952 
L 1134.140506 268.4952 
L 1134.43592 232.826081 
L 1134.731334 268.4952 
L 1135.322162 268.4952 
L 1135.617576 233.229312 
L 1135.91299 268.4952 
L 1136.503818 268.4952 
L 1136.799232 233.627985 
L 1137.094646 234.022151 
L 1137.39006 268.4952 
L 1137.685474 268.4952 
L 1137.980888 234.411861 
L 1138.276302 268.4952 
L 1138.86713 268.4952 
L 1139.162544 234.797166 
L 1139.457958 268.4952 
L 1140.048786 268.4952 
L 1140.3442 235.178115 
L 1140.639614 268.4952 
L 1141.230442 268.4952 
L 1141.525856 235.554757 
L 1141.82127 268.4952 
L 1142.116684 268.4952 
L 1142.412098 235.927141 
L 1142.707512 268.4952 
L 1160.432351 268.4952 
L 1160.432351 268.4952 
" style="fill:none;stroke:#1f77b4;stroke-linecap:round;stroke-width:1.5;"/>
   </g>
   <g id="line2d_90">
    <path clip-path="url(#pf4b1b56f14)" d="M 983.479373 268.4952 
L 992.046379 268.4952 
L 992.341793 236.295316 
L 995.000519 230.869081 
L 997.659244 225.970611 
L 1000.31797 221.548574 
L 1002.976696 217.556631 
L 1005.635422 213.95295 
L 1008.294148 210.699769 
L 1011.248288 207.454855 
L 1014.202428 204.558661 
L 1017.156568 201.973712 
L 1020.110707 199.666559 
L 1023.360261 197.414013 
L 1026.609815 195.426268 
L 1030.154783 193.523346 
L 1033.699751 191.863109 
L 1037.540133 190.302583 
L 1041.675928 188.860926 
L 1046.107138 187.550845 
L 1050.833762 186.379008 
L 1056.151214 185.291981 
L 1062.059494 184.318424 
L 1068.558601 183.474581 
L 1075.943951 182.739939 
L 1084.510957 182.11228 
L 1088.055924 181.998162 
L 1089.828408 182.213687 
L 1091.305478 182.585797 
L 1093.077962 183.284871 
L 1094.850446 184.242321 
L 1096.62293 185.444007 
L 1098.690828 187.106347 
L 1101.05414 189.287165 
L 1104.00828 192.338105 
L 1107.553247 196.332848 
L 1110.507387 199.835162 
L 1110.802801 200.611348 
L 1111.393629 201.306068 
L 1111.689043 202.065627 
L 1112.870699 203.43003 
L 1115.529425 209.758371 
L 1118.188151 215.471207 
L 1120.846877 220.628404 
L 1121.733119 222.233492 
L 1122.028533 222.363729 
L 1124.096431 225.892771 
L 1124.687259 226.082725 
L 1125.278087 227.036232 
L 1125.868915 227.21774 
L 1126.459743 228.14573 
L 1126.755157 228.230834 
L 1127.050571 228.435566 
L 1129.709296 232.331829 
L 1132.368022 235.849136 
L 1132.663436 261.67299 
L 1132.95885 268.4952 
L 1160.432351 268.4952 
L 1160.432351 268.4952 
" style="fill:none;stroke:#ff7f0e;stroke-linecap:round;stroke-width:1.5;"/>
   </g>
   <g id="patch_48">
    <path d="M 974.631724 268.4952 
L 974.631724 162.9072 
" style="fill:none;stroke:#cccccc;stroke-linecap:square;stroke-linejoin:miter;stroke-width:0.8;"/>
   </g>
   <g id="patch_49">
    <path d="M 1169.28 268.4952 
L 1169.28 162.9072 
" style="fill:none;stroke:#cccccc;stroke-linecap:square;stroke-linejoin:miter;stroke-width:0.8;"/>
   </g>
   <g id="patch_50">
    <path d="M 974.631724 268.4952 
L 1169.28 268.4952 
" style="fill:none;stroke:#cccccc;stroke-linecap:square;stroke-linejoin:miter;stroke-width:0.8;"/>
   </g>
   <g id="patch_51">
    <path d="M 974.631724 162.9072 
L 1169.28 162.9072 
" style="fill:none;stroke:#cccccc;stroke-linecap:square;stroke-linejoin:miter;stroke-width:0.8;"/>
   </g>
   <g id="legend_1">
    <g id="patch_52">
     <path d="M 1113.597188 199.197825 
L 1162.28 199.197825 
Q 1164.28 199.197825 1164.28 197.197825 
L 1164.28 169.9072 
Q 1164.28 167.9072 1162.28 167.9072 
L 1113.597188 167.9072 
Q 1111.597188 167.9072 1111.597188 169.9072 
L 1111.597188 197.197825 
Q 1111.597188 199.197825 1113.597188 199.197825 
z
" style="fill:#ffffff;opacity:0.8;stroke:#cccccc;stroke-linejoin:miter;"/>
    </g>
    <g id="line2d_91">
     <path d="M 1115.597188 175.565012 
L 1135.597188 175.565012 
" style="fill:none;stroke:#1f77b4;stroke-linecap:round;stroke-width:1.5;"/>
    </g>
    <g id="line2d_92"/>
    <g id="text_76">
     <!-- 60 -->
     <g style="fill:#262626;" transform="translate(1143.597188 179.065012)scale(0.1 -0.1)">
      <use xlink:href="#ArialMT-54"/>
      <use x="55.615234" xlink:href="#ArialMT-48"/>
     </g>
    </g>
    <g id="line2d_93">
     <path d="M 1115.597188 189.710325 
L 1135.597188 189.710325 
" style="fill:none;stroke:#ff7f0e;stroke-linecap:round;stroke-width:1.5;"/>
    </g>
    <g id="line2d_94"/>
    <g id="text_77">
     <!-- 100 -->
     <g style="fill:#262626;" transform="translate(1143.597188 193.210325)scale(0.1 -0.1)">
      <use xlink:href="#ArialMT-49"/>
      <use x="55.615234" xlink:href="#ArialMT-48"/>
      <use x="111.230469" xlink:href="#ArialMT-48"/>
     </g>
    </g>
   </g>
  </g>
 </g>
 <defs>
  <clipPath id="p819858683d">
   <rect height="105.588" width="194.648276" x="40.32" y="36.2016"/>
  </clipPath>
  <clipPath id="pf55864e125">
   <rect height="105.588" width="194.648276" x="273.897931" y="36.2016"/>
  </clipPath>
  <clipPath id="pc541c4cbf4">
   <rect height="105.588" width="194.648276" x="507.475862" y="36.2016"/>
  </clipPath>
  <clipPath id="p9128f0186c">
   <rect height="105.588" width="194.648276" x="741.053793" y="36.2016"/>
  </clipPath>
  <clipPath id="p8c575fd376">
   <rect height="105.588" width="194.648276" x="974.631724" y="36.2016"/>
  </clipPath>
  <clipPath id="pc2dab1a3a1">
   <rect height="105.588" width="194.648276" x="40.32" y="162.9072"/>
  </clipPath>
  <clipPath id="p389641d2b7">
   <rect height="105.588" width="194.648276" x="273.897931" y="162.9072"/>
  </clipPath>
  <clipPath id="p5ff013f489">
   <rect height="105.588" width="194.648276" x="507.475862" y="162.9072"/>
  </clipPath>
  <clipPath id="pf6694dc1c3">
   <rect height="105.588" width="194.648276" x="741.053793" y="162.9072"/>
  </clipPath>
  <clipPath id="pf4b1b56f14">
   <rect height="105.588" width="194.648276" x="974.631724" y="162.9072"/>
  </clipPath>
 </defs>
</svg>
